<svg xmlns="http://www.w3.org/2000/svg" viewBox="0 0 255.33 52.67"><defs><style>.cls-1{isolation:isolate;}.cls-2{fill:#3f5caa;}.cls-3{fill:#3e5daa;}.cls-4{fill:#3d59a8;}.cls-5{fill:#4068b1;}.cls-6{fill:#3975bb;}.cls-7{fill:#3293d1;}.cls-8{fill:#0c9dd3;}.cls-9{fill:#069ad7;}.cls-10{fill:#347fc2;}.cls-11{fill:#3e6ab3;}.cls-12{fill:#407ec0;}.cls-13{fill:#4189c8;}.cls-14{fill:#3a60ac;}.cls-15{fill:#4063ae;}.cls-16{fill:#3ea3db;}.cls-17{fill:#83b9e4;}.cls-18{fill:#93d0f2;}.cls-19{fill:#58bceb;}.cls-20{fill:#80d2f5;}.cls-21{fill:#60c9f3;}.cls-22{fill:#7cc4ed;}.cls-23{fill:#94d0f2;}.cls-24{fill:#2e88c9;}.cls-25{fill:#3575bb;}.cls-26{fill:#568cc9;}.cls-27{fill:#4975ba;}.cls-28{fill:#4167b1;}.cls-29{fill:#4064af;}.cls-30{fill:#3ea1da;}.cls-31{fill:#4292cf;}.cls-32{fill:#4ba3da;}.cls-33{fill:#4895d1;}.cls-34{fill:#4692cf;}.cls-35{fill:#438ac9;}.cls-36{fill:#4487c7;}.cls-37{fill:#4382c3;}.cls-38{fill:#417ec1;}.cls-39{fill:#3d68b2;}.cls-40{fill:#62acdf;}.cls-41{fill:#374ba0;}.cls-42{fill:#3854a5;}.cls-43{fill:#4374b9;}.cls-44{fill:#426bb3;}.cls-45{fill:#4a84c4;}.cls-46{fill:#4ab2e5;}.cls-47{fill:#4f9ad4;}.cls-48{fill:#4eace1;}.cls-49{fill:#4694d0;}.cls-50{fill:#407bbe;}.cls-51{fill:#4799d3;}.cls-52{fill:#468ecc;}.cls-53{fill:#416fb6;}.cls-54{fill:#62a7db;}.cls-55{fill:#64a4d9;}.cls-56{fill:#3c68b1;}.cls-57{fill:#3f74ba;}.cls-58{fill:#3e80c2;}.cls-59{fill:#4874b9;}.cls-60{fill:#4577bc;}.cls-61{fill:#43bdee;}.cls-62{fill:#54a6dc;}.cls-63{fill:#4ba5dc;}.cls-64{fill:#4a8bc9;}.cls-65{fill:#43a6dd;}.cls-66{fill:#4499d4;}.cls-67{fill:#438bca;}.cls-68{fill:#51beed;}.cls-69{fill:#3bb4e7;}.cls-70{fill:#3bb6e9;}.cls-71{fill:#38b0e5;}.cls-72{fill:#3e92cf;}.cls-73{fill:#4098d3;}.cls-74{fill:#4059a8;}.cls-75{fill:#4472b8;}.cls-76{fill:#4164af;}.cls-77{fill:#497abd;}.cls-78{fill:#4672b8;}.cls-79{fill:#4982c3;}.cls-80{fill:#4987c7;}.cls-81{fill:#57caf1;}.cls-82{fill:#47b9ea;}.cls-83{fill:#429ad5;}.cls-84{fill:#4087c7;}.cls-85{fill:#4773b9;}.cls-86{fill:#5fa7db;}.cls-87{fill:#5fb3e4;}.cls-88{fill:#5ec7f2;}.cls-89{fill:#42b8ea;}.cls-90{fill:#40a6de;}.cls-91{fill:#38bced;}.cls-92{fill:#3baae1;}.cls-93{fill:#38b2e6;}.cls-94{fill:#39baec;}.cls-95{fill:#29c5f4;}.cls-96{fill:#5dcae8;}.cls-97{fill:#4cb2e5;}.cls-98{fill:#33b2e7;}.cls-99{fill:#3f7abe;}.cls-100{fill:#4296d2;}.cls-101{fill:#65c2ee;}.cls-102{fill:#5acbf3;}.cls-103{fill:#3fb0e5;}.cls-104{fill:#3cbfef;}.cls-105{fill:#3fa6dd;}.cls-106{fill:#3ca8df;}.cls-107{fill:#3dace2;}.cls-108{fill:#2fc5f4;}.cls-109{fill:#4ac7ed;}.cls-110{fill:#28c4ee;}.cls-111{fill:#4195d1;}.cls-112{fill:#3f9ed8;}.cls-113{fill:#43b5e7;}.cls-114,.cls-125,.cls-126{fill:#61cbed;}.cls-115{fill:#28c3f3;}.cls-116{fill:#39bdee;}.cls-117{fill:#32beef;}.cls-118{fill:#38b6e9;}.cls-119{fill:#36bff0;}.cls-120{fill:#2cc5f4;}.cls-121{fill:#43c6ee;}.cls-122{fill:#37aae1;}.cls-123{fill:#2fc0f0;}.cls-124,.cls-127,.cls-128{fill:#3954a5;mix-blend-mode:multiply;}.cls-124,.cls-125{opacity:0.5;}.cls-125,.cls-126{mix-blend-mode:screen;}.cls-126{opacity:0.3;}.cls-127{opacity:0.2;}.cls-128{opacity:0.8;}.cls-129{font-size:46px;fill:#fff;font-family:Gotham-Light, Gotham;}.cls-130{letter-spacing:-0.02em;}.cls-131{font-family:Gotham-Book, Gotham;}</style></defs><title>Artboard 1</title><g class="cls-1"><g id="Layer_1" data-name="Layer 1"><polygon class="cls-2" points="42.09 7.68 44.8 3.02 39.41 3 42.09 7.68"/><polygon class="cls-3" points="47.49 7.7 44.8 3.02 42.09 7.68 47.49 7.7"/><polygon class="cls-4" points="47.49 7.7 42.09 7.68 44.78 12.36 47.49 7.7"/><polygon class="cls-5" points="50.17 12.38 47.49 7.7 44.78 12.36 50.17 12.38"/><polygon class="cls-6" points="47.47 17.04 50.17 12.38 44.78 12.36 47.47 17.04"/><polygon class="cls-7" points="52.86 17.05 50.17 12.38 47.47 17.04 52.86 17.05"/><polygon class="cls-8" points="50.15 21.72 52.86 17.05 47.47 17.04 50.15 21.72"/><polygon class="cls-9" points="55.55 21.73 52.86 17.05 50.15 21.72 55.55 21.73"/><polygon class="cls-10" points="52.84 26.4 55.55 21.73 50.15 21.72 52.84 26.4"/><polygon class="cls-11" points="58.23 26.41 55.55 21.73 52.84 26.4 58.23 26.41"/><polygon class="cls-12" points="55.52 31.08 58.23 26.41 52.84 26.4 55.52 31.08"/><polygon class="cls-13" points="60.92 31.09 58.23 26.41 55.52 31.08 60.92 31.09"/><polygon class="cls-14" points="58.21 35.76 60.92 31.09 55.52 31.08 58.21 35.76"/><polygon class="cls-5" points="39.41 3 34.01 2.99 36.7 7.67 39.41 3"/><polygon class="cls-15" points="42.09 7.68 39.41 3 36.7 7.67 42.09 7.68"/><polygon class="cls-16" points="39.38 12.35 42.09 7.68 36.7 7.67 39.38 12.35"/><polygon class="cls-17" points="44.78 12.36 42.09 7.68 39.38 12.35 44.78 12.36"/><polygon class="cls-18" points="44.78 12.36 39.38 12.35 42.07 17.03 44.78 12.36"/><polygon class="cls-19" points="47.47 17.04 44.78 12.36 42.07 17.03 47.47 17.04"/><polygon class="cls-20" points="44.76 21.71 47.47 17.04 42.07 17.03 44.76 21.71"/><polygon class="cls-21" points="50.15 21.72 47.47 17.04 44.76 21.71 50.15 21.72"/><polygon class="cls-22" points="47.44 26.39 50.15 21.72 44.76 21.71 47.44 26.39"/><polygon class="cls-23" points="52.84 26.4 50.15 21.72 47.44 26.39 52.84 26.4"/><polygon class="cls-24" points="50.13 31.07 52.84 26.4 47.44 26.39 50.13 31.07"/><polygon class="cls-25" points="55.52 31.08 52.84 26.4 50.13 31.07 55.52 31.08"/><polygon class="cls-26" points="52.81 35.74 55.52 31.08 50.13 31.07 52.81 35.74"/><polygon class="cls-27" points="52.81 35.74 58.21 35.76 55.52 31.08 52.81 35.74"/><polygon class="cls-28" points="34.01 2.99 28.62 2.98 31.3 7.66 34.01 2.99"/><polygon class="cls-29" points="36.7 7.67 34.01 2.99 31.3 7.66 36.7 7.67"/><polygon class="cls-30" points="36.7 7.67 31.3 7.66 33.99 12.34 36.7 7.67"/><polygon class="cls-31" points="39.38 12.35 36.7 7.67 33.99 12.34 39.38 12.35"/><polygon class="cls-32" points="36.67 17.02 39.38 12.35 33.99 12.34 36.67 17.02"/><polygon class="cls-33" points="42.07 17.03 39.38 12.35 36.67 17.02 42.07 17.03"/><polygon class="cls-34" points="42.07 17.03 36.67 17.02 39.36 21.69 42.07 17.03"/><polygon class="cls-35" points="44.76 21.71 42.07 17.03 39.36 21.69 44.76 21.71"/><polygon class="cls-36" points="42.05 26.37 44.76 21.71 39.36 21.69 42.05 26.37"/><polygon class="cls-37" points="47.44 26.39 44.76 21.71 42.05 26.37 47.44 26.39"/><polygon class="cls-38" points="44.73 31.05 47.44 26.39 42.05 26.37 44.73 31.05"/><polygon class="cls-39" points="50.13 31.07 47.44 26.39 44.73 31.05 50.13 31.07"/><polygon class="cls-40" points="47.42 35.73 50.13 31.07 44.73 31.05 47.42 35.73"/><polygon class="cls-26" points="47.42 35.73 52.81 35.74 50.13 31.07 47.42 35.73"/><polygon class="cls-41" points="50.1 40.41 52.81 35.74 47.42 35.73 50.1 40.41"/><polygon class="cls-42" points="50.1 40.41 55.5 40.42 52.81 35.74 50.1 40.41"/><polygon class="cls-43" points="52.79 45.09 55.5 40.42 50.1 40.41 52.79 45.09"/><polygon class="cls-44" points="28.62 2.98 23.22 2.97 25.91 7.64 28.62 2.98"/><polygon class="cls-45" points="31.3 7.66 28.62 2.98 25.91 7.64 31.3 7.66"/><polygon class="cls-46" points="31.3 7.66 25.91 7.64 28.59 12.32 31.3 7.66"/><polygon class="cls-47" points="33.99 12.34 31.3 7.66 28.59 12.32 33.99 12.34"/><polygon class="cls-48" points="33.99 12.34 28.59 12.32 31.28 17 33.99 12.34"/><polygon class="cls-49" points="36.67 17.02 33.99 12.34 31.28 17 36.67 17.02"/><polygon class="cls-50" points="33.97 21.68 36.67 17.02 31.28 17 33.97 21.68"/><polygon class="cls-51" points="39.36 21.69 36.67 17.02 33.97 21.68 39.36 21.69"/><polygon class="cls-52" points="39.36 21.69 33.97 21.68 36.65 26.36 39.36 21.69"/><polygon class="cls-37" points="42.05 26.37 39.36 21.69 36.65 26.36 42.05 26.37"/><polygon class="cls-39" points="39.34 31.04 42.05 26.37 36.65 26.36 39.34 31.04"/><polygon class="cls-53" points="44.73 31.05 42.05 26.37 39.34 31.04 44.73 31.05"/><polygon class="cls-54" points="42.02 35.72 44.73 31.05 39.34 31.04 42.02 35.72"/><polygon class="cls-55" points="42.02 35.72 47.42 35.73 44.73 31.05 42.02 35.72"/><polygon class="cls-56" points="44.71 40.4 47.42 35.73 42.02 35.72 44.71 40.4"/><polygon class="cls-57" points="44.71 40.4 50.1 40.41 47.42 35.73 44.71 40.4"/><polygon class="cls-58" points="47.4 45.07 50.1 40.41 44.71 40.4 47.4 45.07"/><polygon class="cls-39" points="52.79 45.09 50.1 40.41 47.4 45.07 52.79 45.09"/><polygon class="cls-59" points="23.22 2.97 17.83 2.95 20.51 7.63 23.22 2.97"/><polygon class="cls-60" points="25.91 7.64 23.22 2.97 20.51 7.63 25.91 7.64"/><polygon class="cls-61" points="25.91 7.64 20.51 7.63 23.2 12.31 25.91 7.64"/><polygon class="cls-62" points="28.59 12.32 25.91 7.64 23.2 12.31 28.59 12.32"/><polygon class="cls-63" points="28.59 12.32 23.2 12.31 25.89 16.99 28.59 12.32"/><polygon class="cls-64" points="31.28 17 28.59 12.32 25.89 16.99 31.28 17"/><polygon class="cls-65" points="31.28 17 25.89 16.99 28.57 21.67 31.28 17"/><polygon class="cls-66" points="33.97 21.68 31.28 17 28.57 21.67 33.97 21.68"/><polygon class="cls-67" points="36.65 26.36 31.26 26.35 33.94 31.03 36.65 26.36"/><polygon class="cls-50" points="39.34 31.04 36.65 26.36 33.94 31.03 39.34 31.04"/><polygon class="cls-68" points="36.63 35.7 39.34 31.04 33.94 31.03 36.63 35.7"/><polygon class="cls-69" points="36.63 35.7 42.02 35.72 39.34 31.04 36.63 35.7"/><polygon class="cls-70" points="39.31 40.38 42.02 35.72 36.63 35.7 39.31 40.38"/><polygon class="cls-71" points="39.31 40.38 44.71 40.4 42.02 35.72 39.31 40.38"/><polygon class="cls-72" points="42 45.06 44.71 40.4 39.31 40.38 42 45.06"/><polygon class="cls-73" points="47.4 45.07 44.71 40.4 42 45.06 47.4 45.07"/><polygon class="cls-74" points="17.83 2.95 12.43 2.94 15.12 7.62 17.83 2.95"/><polygon class="cls-75" points="20.51 7.63 17.83 2.95 15.12 7.62 20.51 7.63"/><polygon class="cls-76" points="20.51 7.63 15.12 7.62 17.8 12.3 20.51 7.63"/><polygon class="cls-53" points="23.2 12.31 20.51 7.63 17.8 12.3 23.2 12.31"/><polygon class="cls-36" points="23.2 12.31 17.8 12.3 20.49 16.98 23.2 12.31"/><polygon class="cls-77" points="25.89 16.99 23.2 12.31 20.49 16.98 25.89 16.99"/><polygon class="cls-78" points="25.89 16.99 20.49 16.98 23.18 21.66 25.89 16.99"/><polygon class="cls-79" points="28.57 21.67 25.89 16.99 23.18 21.66 28.57 21.67"/><polygon class="cls-78" points="28.57 21.67 23.18 21.66 25.86 26.33 28.57 21.67"/><polygon class="cls-5" points="31.26 26.35 28.57 21.67 25.86 26.33 31.26 26.35"/><polygon class="cls-80" points="28.55 31.01 31.26 26.35 25.86 26.33 28.55 31.01"/><polygon class="cls-43" points="33.94 31.03 31.26 26.35 28.55 31.01 33.94 31.03"/><polygon class="cls-81" points="28.55 31.01 31.23 35.69 33.94 31.03 28.55 31.01"/><polygon class="cls-82" points="31.23 35.69 36.63 35.7 33.94 31.03 31.23 35.69"/><polygon class="cls-83" points="31.23 35.69 33.92 40.37 36.63 35.7 31.23 35.69"/><polygon class="cls-84" points="33.92 40.37 39.31 40.38 36.63 35.7 33.92 40.37"/><polygon class="cls-16" points="33.92 40.37 36.61 45.05 39.31 40.38 33.92 40.37"/><polygon class="cls-58" points="36.61 45.05 42 45.06 39.31 40.38 36.61 45.05"/><polygon class="cls-85" points="12.43 2.94 9.72 7.61 15.12 7.62 12.43 2.94"/><polygon class="cls-86" points="15.12 7.62 9.72 7.61 12.41 12.28 15.12 7.62"/><polygon class="cls-87" points="15.12 7.62 12.41 12.28 17.8 12.3 15.12 7.62"/><polygon class="cls-88" points="17.8 12.3 12.41 12.28 15.1 16.96 17.8 12.3"/><polygon class="cls-89" points="17.8 12.3 15.1 16.96 20.49 16.98 17.8 12.3"/><polygon class="cls-90" points="20.49 16.98 15.1 16.96 17.78 21.64 20.49 16.98"/><polygon class="cls-91" points="20.49 16.98 17.78 21.64 23.18 21.66 20.49 16.98"/><polygon class="cls-92" points="23.18 21.66 17.78 21.64 20.47 26.32 23.18 21.66"/><polygon class="cls-93" points="23.18 21.66 20.47 26.32 25.86 26.33 23.18 21.66"/><polygon class="cls-94" points="25.86 26.33 20.47 26.32 23.15 31 25.86 26.33"/><polygon class="cls-95" points="25.86 26.33 23.15 31 28.55 31.01 25.86 26.33"/><polygon class="cls-96" points="23.15 31 25.84 35.68 28.55 31.01 23.15 31"/><polygon class="cls-97" points="25.84 35.68 31.23 35.69 28.55 31.01 25.84 35.68"/><polygon class="cls-98" points="25.84 35.68 28.52 40.36 31.23 35.69 25.84 35.68"/><polygon class="cls-99" points="28.52 40.36 33.92 40.37 31.23 35.69 28.52 40.36"/><polygon class="cls-100" points="28.52 40.36 31.21 45.03 33.92 40.37 28.52 40.36"/><polygon class="cls-31" points="31.21 45.03 36.61 45.05 33.92 40.37 31.21 45.03"/><polygon class="cls-101" points="12.41 12.28 7.01 12.27 9.7 16.95 12.41 12.28"/><polygon class="cls-102" points="15.1 16.96 12.41 12.28 9.7 16.95 15.1 16.96"/><polygon class="cls-103" points="15.1 16.96 9.7 16.95 12.39 21.63 15.1 16.96"/><polygon class="cls-104" points="17.78 21.64 15.1 16.96 12.39 21.63 17.78 21.64"/><polygon class="cls-105" points="17.78 21.64 12.39 21.63 15.07 26.31 17.78 21.64"/><polygon class="cls-106" points="20.47 26.32 17.78 21.64 15.07 26.31 20.47 26.32"/><polygon class="cls-107" points="15.07 26.31 17.76 30.99 20.47 26.32 15.07 26.31"/><polygon class="cls-108" points="20.47 26.32 17.76 30.99 23.15 31 20.47 26.32"/><polygon class="cls-109" points="23.15 31 17.76 30.99 20.44 35.66 23.15 31"/><polygon class="cls-110" points="20.44 35.66 25.84 35.68 23.15 31 20.44 35.66"/><polygon class="cls-108" points="20.44 35.66 23.13 40.34 25.84 35.68 20.44 35.66"/><polygon class="cls-111" points="23.13 40.34 28.52 40.36 25.84 35.68 23.13 40.34"/><polygon class="cls-112" points="25.82 45.02 28.52 40.36 23.13 40.34 25.82 45.02"/><polygon class="cls-30" points="25.82 45.02 31.21 45.03 28.52 40.36 25.82 45.02"/><polygon class="cls-113" points="7.01 12.27 4.3 16.94 9.7 16.95 7.01 12.27"/><polygon class="cls-114" points="9.7 16.95 4.3 16.94 6.99 21.61 9.7 16.95"/><polygon class="cls-115" points="9.7 16.95 6.99 21.61 12.39 21.63 9.7 16.95"/><polygon class="cls-116" points="12.39 21.63 6.99 21.61 9.68 26.29 12.39 21.63"/><polygon class="cls-117" points="12.39 21.63 9.68 26.29 15.07 26.31 12.39 21.63"/><polygon class="cls-118" points="9.68 26.29 12.36 30.97 15.07 26.31 9.68 26.29"/><polygon class="cls-119" points="15.07 26.31 12.36 30.97 17.76 30.99 15.07 26.31"/><polygon class="cls-120" points="17.76 30.99 12.36 30.97 15.05 35.65 17.76 30.99"/><polygon class="cls-121" points="17.76 30.99 15.05 35.65 20.44 35.66 17.76 30.99"/><polygon class="cls-122" points="15.05 35.65 17.73 40.33 20.44 35.66 15.05 35.65"/><polygon class="cls-108" points="17.73 40.33 23.13 40.34 20.44 35.66 17.73 40.33"/><polygon class="cls-123" points="17.73 40.33 20.42 45.01 23.13 40.34 17.73 40.33"/><polygon class="cls-31" points="23.13 40.34 20.42 45.01 25.82 45.02 23.13 40.34"/><polygon class="cls-124" points="7.01 12.27 23.13 40.34 55.5 40.42 52.81 35.74 25.84 35.68 12.41 12.28 7.01 12.27"/><polygon class="cls-125" points="12.43 2.94 28.55 31.01 25.85 35.68 9.72 7.61 12.43 2.94"/><polygon class="cls-125" points="7 12.34 23.11 40.41 20.41 45.08 4.29 17 7 12.34"/><polygon class="cls-126" points="36.66 17.08 41.98 26.43 36.58 26.42 33.95 21.75 36.66 17.08"/><polygon class="cls-127" points="36.54 17.01 25.82 17.09 28.52 21.76 33.85 21.69 36.54 17.01"/><polygon class="cls-128" points="47.44 26.39 41.98 26.43 36.54 17.01 25.82 17.09 23.1 12.3 39.28 12.29 47.44 26.39"/><text class="cls-129" transform="translate(71.28 42.74)">inta<tspan class="cls-130" x="84.45" y="0">k</tspan><tspan x="109.06" y="0">e</tspan><tspan class="cls-131" x="135.93" y="0">AI</tspan></text></g></g></svg>