<svg id="Layer_1" data-name="Layer 1" xmlns="http://www.w3.org/2000/svg" viewBox="0 0 130.16 22.42"><defs><style>.cls-1{font-size:11px;font-family:Gotham-Light, Gotham;}.cls-1,.cls-2,.cls-5,.cls-6{fill:#fff;}.cls-2{stroke:#fff;stroke-miterlimit:10;stroke-width:0.25px;}.cls-3,.cls-4{fill:#a7a9ac;}.cls-4,.cls-5{fill-rule:evenodd;}.cls-7{fill:#cdb380;}.cls-8{fill:#374e5f;}</style></defs><title>logoforgroupapp</title><text class="cls-1" transform="translate(70.41 12.95)">client</text><line class="cls-2" x1="66.13" y1="3.29" x2="66.13" y2="16.77"/><path class="cls-3" d="M7.73,11.67l0-.07c0-.14,0-.29-.12-.4s0-.14-.15-.09-.15-.05-.21,0-.42.26-.52.49-.14,0-.19,0,.14.12,0,.18a.2.2,0,0,0-.1.16c0,.07,0,.11-.12,0s-.17-.06-.24.06a.53.53,0,0,1-.2.2c-.18.09-.1.18,0,.26a.51.51,0,0,1,.21.38.39.39,0,0,0,0,.12s0,.06.07,0,0,0,0-.07-.06-.12,0-.23c.08.31,0,.6.06.87-.07,0-.08-.16-.13,0a.23.23,0,0,1-.05.11s-.1,0-.07.07a.1.1,0,0,0,.14.05c.07,0,.17,0,.19,0s.17.17,0,.27-.06.11.05.12a.52.52,0,0,1,.34.22c0,.05.09.16-.07.14s-.13,0-.11.15,0,.11,0,.16-.09.2,0,.25.08-.12.17-.15a.18.18,0,0,0,.1-.24c0-.06,0-.11,0-.14s.11,0,.16,0a.53.53,0,0,1,.22.46h0l0,0s0,0,0,0h0c-.09,0-.12,0-.1.12s0,.13.13.09.11.05.12.12-.08.1-.14.09a.23.23,0,0,1-.15-.09.25.25,0,0,0-.29-.12h0c0,.15-.1.14-.17.06A1.61,1.61,0,0,0,6,15a.24.24,0,0,1-.18-.31.21.21,0,0,1,.27-.18c.06,0,.08-.05.09-.1s0,0-.05-.05l-.45-.09s-.12-.07-.15,0,0,.12.08.14a.21.21,0,0,1,.13.28c0,.2.17.34.1.54l0,0c.07,0,.13.05.08.12s-.17.13-.22.08-.29-.08-.46,0c.12.07,0,.2.09.32l.07-.13c0-.08.07-.21.14,0s.06,0,.11,0H5.9c.07,0,.16,0,.13.13s0,.25-.16.2a.94.94,0,0,0-.56.05.25.25,0,0,0,.29.13c.11,0,.15,0,.17.1h0l.2,0s.07-.11.13-.07a.37.37,0,0,0,.22.07h.13a.87.87,0,0,1,.25,0h.14l.24,0h0a.05.05,0,0,1,.07,0l.51-.06c0-.07-.1-.09-.11-.17a2,2,0,0,1,0-.84.06.06,0,0,0,0,0c-.1-.22.06-.42,0-.63h0l-.11-.16a.47.47,0,0,1-.05-.51s.1-.07,0-.15-.09,0-.14,0-.08,0-.12.07,0-.13-.07-.19,0-.1.05-.12.15-.1.1-.21c-.12-.26,0-.47.12-.68a.57.57,0,0,0,.08-.41A.35.35,0,0,1,7.73,11.67ZM6.14,16c-.08,0-.08-.1,0-.14a.89.89,0,0,0,.26-.37s0-.1.1-.08,0,.08.05.15-.06.22-.1.33S6.24,16,6.14,16Zm.69.16c-.07,0-.17-.06-.27,0s0-.07,0-.1,0-.12,0-.14.14.05.21,0,0-.15.13-.16,0,.13,0,.19S7,16.15,6.83,16.18Zm.53-2.07a.56.56,0,0,1,.06.27c0,.12.09.23.1.36a.71.71,0,0,1,0,.18s-.06.06-.08,0-.2-.21-.26-.35.09-.05.12-.11-.18-.2-.21-.33S7,14,7.12,14.1,7.27,13.95,7.35,14.11Zm-.15-.22c0,.06-.07,0-.11,0a.34.34,0,0,1-.31-.14c.1,0,.2,0,.28-.06s.08,0,.1,0A.16.16,0,0,1,7.21,13.89Z" transform="translate(-1.51 -3.67)"/><path class="cls-4" d="M7.69,4.4c.07-.07.13,0,.18,0a1.06,1.06,0,0,0,.42.2s.05,0,.07,0c.25-.15.22.07.23.19a.91.91,0,0,1,0,.54c0,.06-.06.11-.12.11s-.08-.07-.1-.11-.1-.29-.25-.35h0a.16.16,0,0,0-.18-.19l0,0a.38.38,0,0,1-.09-.29l-.05,0h0Z" transform="translate(-1.51 -3.67)"/><path class="cls-4" d="M8.35,10.55c.09.13.22,0,.35,0-.05.11,0,.25-.2.27s-.18.09,0,.18.07,0,0,.08-.08.06-.11,0c-.12-.2-.26-.06-.36,0s-.14,0-.19,0-.12-.11,0-.14,0,0,0-.06c-.14-.21,0-.22.16-.28s.09,0,.1-.07Z" transform="translate(-1.51 -3.67)"/><path class="cls-4" d="M5.26,9.93l-.07-.07c0-.12-.12-.12-.16-.19s.12,0,.17-.06-.14-.27-.12-.44a1.8,1.8,0,0,0,.56.63.72.72,0,0,1,.3.33c0,.09,0,.2.08.3a.2.2,0,0,0,.15.14c-.2,0-.3.22-.49.2s0,0,0,.07,0,.14-.08.15a.1.1,0,0,1-.13-.11c0-.07,0-.1-.1-.1s0,.07-.05.1a.42.42,0,0,1-.39.07s0-.06,0-.09,0-.14-.05-.14c-.25,0-.38-.22-.59-.29a.16.16,0,0,1-.09-.21c0-.09.13,0,.19,0s.09,0,.13.15,0,0,.05,0,.22,0,.27-.12h.07c0,.08.11.08.16.09a.68.68,0,0,1,.45.2.07.07,0,0,0,.08,0c.06-.13-.05-.21-.08-.31s0-.12-.1-.15h0c0-.06,0-.12-.08-.09h0C5.35,9.95,5.32,9.93,5.26,9.93Zm-.08.88a.05.05,0,0,0,0-.06h0s0,0,0,.06Z" transform="translate(-1.51 -3.67)"/><path class="cls-4" d="M3.12,8.2c0-.06-.06-.07-.1-.08s0,0,0-.05a6.74,6.74,0,0,1-.57-.65c0-.2-.15-.37-.18-.57s-.06-.15,0-.17.13.07.15.13.13.31.19.47a2.22,2.22,0,0,0,.75.9c.09.07.17.13.13.27s-.1-.08-.17-.08S3.21,8.24,3.12,8.2Z" transform="translate(-1.51 -3.67)"/><path class="cls-4" d="M6.08,10.84c.08,0,.14,0,.19.08a.18.18,0,0,1,.08.21c0,.07-.1,0-.16,0l-.21,0a.15.15,0,0,1-.17-.07.17.17,0,0,1,0-.19c0-.07.08,0,.13,0s.11,0,.15,0,0-.08,0-.12Z" transform="translate(-1.51 -3.67)"/><path class="cls-4" d="M5.41,11.29c0-.1-.08-.09-.13-.11l-.14,0L5,11.08A.57.57,0,0,1,5.4,11c.1,0,.1.09.12.16s0,.11-.12.12Z" transform="translate(-1.51 -3.67)"/><path class="cls-4" d="M6.13,11.82c-.05,0-.08,0-.08-.08s.16-.25.23-.25a.08.08,0,0,1,.09.09C6.38,11.66,6.21,11.82,6.13,11.82Z" transform="translate(-1.51 -3.67)"/><path class="cls-4" d="M5.76,13.46c0,.19-.14.17-.25.19C5.55,13.52,5.67,13.55,5.76,13.46Z" transform="translate(-1.51 -3.67)"/><path class="cls-4" d="M6.08,10.83H6c0-.05.08,0,.11,0Z" transform="translate(-1.51 -3.67)"/><path class="cls-4" d="M7.65,14.46s0-.08,0-.08,0,.09,0,.16l-.07-.08Z" transform="translate(-1.51 -3.67)"/><path class="cls-3" d="M6.44,15.5" transform="translate(-1.51 -3.67)"/><path class="cls-3" d="M6.1,16" transform="translate(-1.51 -3.67)"/><path class="cls-3" d="M6.53,16.07c0,.05,0,.05.09.07a.18.18,0,0,0,.18-.05v0s0,0,0,0,0,0,0,.07,0,0-.05.05a.39.39,0,0,1,.21,0h.11l0,0L6.82,16s0-.06,0-.1h0s-.08,0-.09,0a.05.05,0,0,0,0,0l0,0v0c-.05,0-.13-.06-.12.05a.07.07,0,0,0,0,0ZM6.72,16s0,0,.06.06l-.05,0A.13.13,0,0,1,6.72,16Z" transform="translate(-1.51 -3.67)"/><path class="cls-5" d="M7.26,13.73s.06-.1.12-.07.08-.08.14,0,0,.1,0,.15a.47.47,0,0,0,.05.51l.11.16h0c0,.21-.14.41,0,.63a.06.06,0,0,1,0,0,2,2,0,0,0,0,.84c0,.08.09.1.11.17l.16,0c0-.06,0-.13,0-.19a.32.32,0,0,1,0-.16c.07-.22,0-.46.06-.68a.2.2,0,0,0,0-.12c-.06-.16-.17-.32,0-.5,0,0,0,0,0-.07,0-.33-.19-.62-.17-1a2.57,2.57,0,0,0-.14-.68c0-.06,0-.13,0-.18.24-.26.12-.61.22-.9a.35.35,0,0,0-.18.44.57.57,0,0,1-.08.41c-.11.21-.24.42-.12.68,0,.11,0,.13-.1.21s-.08.07-.05.12S7.2,13.67,7.26,13.73Zm.41.66c.07,0,0,.09,0,.16l-.07-.08S7.65,14.37,7.68,14.38Z" transform="translate(-1.51 -3.67)"/><path class="cls-5" d="M7.68,15.94v0h0a.18.18,0,0,0,0,0Z" transform="translate(-1.51 -3.67)"/><path class="cls-5" d="M7.78,4.51a.38.38,0,0,0,.09.29A5.64,5.64,0,0,1,6.53,4a1.17,1.17,0,0,1,.39.17c.14.06.29.09.43.16a.66.66,0,0,0,.38.13S7.75,4.5,7.78,4.51Z" transform="translate(-1.51 -3.67)"/><path class="cls-5" d="M3,8.14a2.11,2.11,0,0,1-.39-.38l-.13-.19-.06-.14h0A6.74,6.74,0,0,0,3,8.07s0,0,0,.05Z" transform="translate(-1.51 -3.67)"/><path class="cls-5" d="M3.31,8.4,3.1,8.22l0,0c.09,0,.19.07.22.18Z" transform="translate(-1.51 -3.67)"/><path class="cls-5" d="M7.92,4.83A.16.16,0,0,1,8.09,5Z" transform="translate(-1.51 -3.67)"/><path class="cls-5" d="M3.1,8.22,3,8.14l0,0s.1,0,.1.08Z" transform="translate(-1.51 -3.67)"/><polygon class="cls-5" points="2.27 0.77 2.27 0.76 2.27 0.77 2.27 0.77"/><polygon class="cls-5" points="3.42 5.12 3.41 5.1 3.42 5.1 3.42 5.12"/><path class="cls-6" d="M10,7.87a1.61,1.61,0,0,0-.15.49,1.26,1.26,0,0,1-.82,1H9v0a2.78,2.78,0,0,0,.16-.81A2.77,2.77,0,0,0,9,9c-.12.24-.23.49-.52.58a2.77,2.77,0,0,1-.68.14c-.19,0-.21,0-.18-.2a1.3,1.3,0,0,1,.56-.85c.26-.2.54-.38.8-.58a2.48,2.48,0,0,0,.75-.84,2,2,0,0,0,.12-1.51s0,0,0,.06,0,.23,0,.35a2,2,0,0,1-.82,1.58c-.11.08-.23.23-.37.13s0-.26,0-.39a8,8,0,0,0,.18-1.81c0-.44,0-.89-.08-1.33a1.36,1.36,0,0,0-.1-.51s0-.09-.07,0,0,.21,0,.31a.3.3,0,0,1-.15.29c-.13.07-.28,0-.39-.12s-.3-.13-.44-.21L7.39,4S7.31,4,7.26,4s-.07.08,0,.11l.2.16.26.14c.07-.07.13,0,.18,0a1.06,1.06,0,0,0,.42.2s.05,0,.07,0c.25-.15.22.07.23.19a.91.91,0,0,1,0,.54c0,.06-.06.11-.12.11s-.08-.07-.1-.11-.1-.29-.25-.35a3,3,0,0,1,.14.37,4.49,4.49,0,0,1,0,1.91A3,3,0,0,1,7.6,8.51,2.63,2.63,0,0,0,7.1,9.73a1.52,1.52,0,0,1-.21.71c-.17.24-.33.25-.52,0a6.86,6.86,0,0,0-.69-.75A2.56,2.56,0,0,1,5.08,9c0-.06,0-.15-.12-.19S5,9,5,9A17.73,17.73,0,0,1,3.52,8a3.28,3.28,0,0,1-1-1.72,3,3,0,0,1,0-.9c0-.07.07-.09.13-.11a2.52,2.52,0,0,0,1.12-.79c-.09,0-.13,0-.18.09A2.12,2.12,0,0,1,2.89,5S2.79,5,2.76,5s0-.09.07-.11c.25-.22.5-.44.77-.64A1.31,1.31,0,0,0,4,3.8l-.19.11a.79.79,0,0,1-.27.17,6.1,6.1,0,0,0-.8.46c-.11.07-.23.18-.37,0s-.11-.27-.15-.42.06-.33,0-.5a1.72,1.72,0,0,0-.17.8v.18a1.28,1.28,0,0,1,0,.33s0,.09-.05.13H2a1.08,1.08,0,0,0,0,.11,1.38,1.38,0,0,1,0,.16c0,.06,0,.12,0,.18S2,5.86,2,6v.15l0,.14v.08l.1.36v.08l.06.25,0,.11c.06.08.07.2.15.27h0c0-.2-.15-.37-.18-.57s-.06-.15,0-.17.13.07.15.13.13.31.19.47a2.22,2.22,0,0,0,.75.9c.09.07.17.13.13.27s-.1-.08-.17-.08l0,0c.07.12.26.13.25.31a1.07,1.07,0,0,0,.62.76l.14.07.25.1a2.11,2.11,0,0,1,.62.21c0-.12-.12-.12-.16-.19s.12,0,.17-.06-.14-.27-.12-.44a1.8,1.8,0,0,0,.56.63.72.72,0,0,1,.3.33c0,.09,0,.2.08.3a.2.2,0,0,0,.15.14c-.2,0-.3.22-.49.2s0,0,0,.07,0,.14-.08.15a.1.1,0,0,1-.13-.11c0-.07,0-.1-.1-.1s0,.07-.05.1a.42.42,0,0,1-.39.07s0-.06,0-.09,0-.14-.05-.14c-.25,0-.38-.22-.59-.29a.16.16,0,0,1-.09-.21c0-.09.13,0,.19,0s.09,0,.13.15,0,0,.05,0,.22,0,.27-.12a1.52,1.52,0,0,0-.51-.19c-.21,0-.28,0-.26.25a.93.93,0,0,0,.42.67l.17.11.15.07.6.13c0-.1-.08-.09-.13-.11l-.14,0L5,11.08A.57.57,0,0,1,5.4,11c.1,0,.1.09.12.16s0,.11-.12.12a.94.94,0,0,1,.09.64,4.94,4.94,0,0,1-.2,1c0,.1,0,.2,0,.3a2.52,2.52,0,0,1-.17.67l0,.12a.33.33,0,0,1,0,.26,3.07,3.07,0,0,0-.19.65c0,.21-.21.38-.23.61a.3.3,0,0,1-.19.28.76.76,0,0,1,0,.27.63.63,0,0,1,.34,0,3.39,3.39,0,0,0,.82.17h0c0-.11-.06-.14-.17-.1A.25.25,0,0,1,5.31,16,.94.94,0,0,1,5.87,16c.16,0,.14-.11.16-.2s-.06-.12-.13-.13H5.64s-.09,0-.11,0-.1-.07-.14,0l-.07.13c0-.12,0-.24-.09-.32.17-.07.31-.16.46,0s.17,0,.22-.08,0-.11-.08-.12l0,0c.07-.2-.14-.34-.1-.54a.21.21,0,0,0-.13-.28c-.05,0-.1-.09-.08-.14s.1,0,.15,0l.45.09s.06,0,.05.05,0,.11-.09.1a.21.21,0,0,0-.27.18A.24.24,0,0,0,6,15a1.61,1.61,0,0,1,.79.47c.07.07.16.08.17-.06h0a.25.25,0,0,1,.29.12.23.23,0,0,0,.15.09c.06,0,.15,0,.14-.09s0-.15-.12-.12-.11,0-.13-.09,0-.13.1-.12a.53.53,0,0,0-.22-.46c-.05,0-.1-.07-.16,0s0,.09,0,.14a.18.18,0,0,1-.1.24c-.09,0-.1.19-.17.15s0-.16,0-.25,0-.11,0-.16,0-.16.11-.15.11-.09.07-.14a.52.52,0,0,0-.34-.22c-.11,0-.08-.1-.05-.12s0-.19,0-.27-.12-.06-.19,0a.1.1,0,0,1-.14-.05c0-.07,0,0,.07-.07a.23.23,0,0,0,.05-.11c0-.15.06,0,.13,0-.11-.27,0-.55-.06-.87-.08.11,0,.17,0,.23s0,.06,0,.07-.06,0-.07,0a.39.39,0,0,1,0-.12.51.51,0,0,0-.21-.38c-.08-.09-.17-.17,0-.26a.53.53,0,0,0,.2-.2c.07-.11.14-.13.24-.06s.11,0,.12,0a.2.2,0,0,1,.1-.16c.12-.06-.12-.11,0-.18s.14.09.19,0,.33-.34.52-.49.14,0,.21,0,.1.06.15.09.1.26.12.4c.06,0,0-.15.17-.14a.69.69,0,0,0,.8-.55c0-.13.13-.27,0-.39s-.25,0-.37,0h0c.09.13.22,0,.35,0-.05.11,0,.25-.2.27s-.18.09,0,.18.07,0,0,.08-.08.06-.11,0c-.12-.2-.26-.06-.36,0s-.14,0-.19,0-.12-.11,0-.14,0,0,0-.06c-.14-.21,0-.22.16-.28s.09,0,.1-.07a.78.78,0,0,0-.44.14.17.17,0,0,1-.22,0c-.08-.06,0-.13,0-.19s.3-.26.48-.34L9.3,9.58a1.12,1.12,0,0,0,.6-.66c0-.09,0-.2.08-.29A1.66,1.66,0,0,0,10,7.87ZM4.42,9.26s0,0,0,0h0a.91.91,0,0,1-.58-.39,2.18,2.18,0,0,1,.58.39h0Zm1.08,4.4c.05-.13.17-.1.25-.19C5.72,13.65,5.62,13.63,5.5,13.65ZM6,11.19a.15.15,0,0,1-.17-.07.17.17,0,0,1,0-.19c0-.07.08,0,.13,0s.11,0,.15,0,0-.08,0-.12H6c0-.05.08,0,.11,0h0c.08,0,.14,0,.19.08a.18.18,0,0,1,.08.21c0,.07-.1,0-.16,0Zm.14.63c-.05,0-.08,0-.08-.08s.16-.25.23-.25a.08.08,0,0,1,.09.09C6.38,11.66,6.21,11.82,6.13,11.82Z" transform="translate(-1.51 -3.67)"/><path class="cls-5" d="M7.27,15v0h0Z" transform="translate(-1.51 -3.67)"/><path class="cls-5" d="M4.4,9.23h0s0,0,0,0Z" transform="translate(-1.51 -3.67)"/><path class="cls-5" d="M7.27,15h0Z" transform="translate(-1.51 -3.67)"/><path class="cls-5" d="M9.06,9.4H9v0Z" transform="translate(-1.51 -3.67)"/><path class="cls-5" d="M2,5.31l0-.06S2,5.28,2,5.31Z" transform="translate(-1.51 -3.67)"/><path class="cls-5" d="M7.28,14.49c-.05-.12-.18-.2-.21-.33S7,14,7.12,14.1s.15-.15.23,0a.56.56,0,0,1,.06.27c0,.12.09.23.1.36a.71.71,0,0,1,0,.18s-.06.06-.08,0-.2-.21-.26-.35S7.25,14.55,7.28,14.49Z" transform="translate(-1.51 -3.67)"/><path class="cls-5" d="M6.79,13.78c.1,0,.2,0,.28-.06s.08,0,.1,0a.16.16,0,0,1,0,.14c0,.06-.07,0-.11,0A.34.34,0,0,1,6.79,13.78Z" transform="translate(-1.51 -3.67)"/><path class="cls-5" d="M5.6,10.56a.07.07,0,0,1-.08,0,.68.68,0,0,0-.45-.2c-.06,0-.14,0-.16-.09a1.13,1.13,0,0,1,.56.14C5.52,10.45,5.6,10.48,5.6,10.56Z" transform="translate(-1.51 -3.67)"/><path class="cls-5" d="M5.42,10.11c.07,0,.17,0,.1.15A.36.36,0,0,1,5.42,10.11Z" transform="translate(-1.51 -3.67)"/><path class="cls-5" d="M5.33,10c.09,0,.08,0,.08.09Z" transform="translate(-1.51 -3.67)"/><path class="cls-5" d="M5.26,9.93c.06,0,.09,0,.07.08Z" transform="translate(-1.51 -3.67)"/><path class="cls-5" d="M7.78,4.51s-.06,0-.05,0Z" transform="translate(-1.51 -3.67)"/><path class="cls-5" d="M5.19,10.81h0s0,0,0-.06h0A.05.05,0,0,1,5.19,10.81Z" transform="translate(-1.51 -3.67)"/><path class="cls-6" d="M6.34,15.76" transform="translate(-1.51 -3.67)"/><path class="cls-6" d="M7.38,15.25" transform="translate(-1.51 -3.67)"/><path class="cls-6" d="M3.34,8.3" transform="translate(-1.51 -3.67)"/><path class="cls-7" d="M11.18,13.53a.59.59,0,0,0-.15,0,.65.65,0,0,0-.34.1.72.72,0,0,0-.26.3c0-.11,0-.22,0-.33s0-.33,0-.49a.75.75,0,0,0,.35-.09.68.68,0,0,0,.27-.31.72.72,0,0,0,.06-.18,0,0,0,0,0,0,0H11a.64.64,0,0,0-.34.09.67.67,0,0,0-.27.37,4.81,4.81,0,0,0-.09-.49.65.65,0,0,0,.3-.11.6.6,0,0,0,.21-.29.62.62,0,0,0,0-.16,0,0,0,0,0,0,0h0a.57.57,0,0,0-.28.08.52.52,0,0,0-.17.17.66.66,0,0,0-.08.22,4.55,4.55,0,0,0-.34-.89h0v0A.72.72,0,0,0,9.86,11a.57.57,0,0,0-.43-.29,0,0,0,0,0,0,0v0a.71.71,0,0,0,.08.31.62.62,0,0,0,.4.31,4.35,4.35,0,0,1,.23.52.66.66,0,0,0-.21-.21.56.56,0,0,0-.29-.08.6.6,0,0,0-.21,0h0a.7.7,0,0,0,.13.2.62.62,0,0,0,.46.2l.18,0h0a4.76,4.76,0,0,1,.2,1,.69.69,0,0,0-.24-.28.61.61,0,0,0-.32-.09.59.59,0,0,0-.16,0h0v0h0a.75.75,0,0,0,.14.24.65.65,0,0,0,.2.17.68.68,0,0,0,.32.08h.1c0,.11,0,.22,0,.33s0,.17,0,.25a.65.65,0,0,0-.26-.31.69.69,0,0,0-.35-.1H9.71a.81.81,0,0,0,.11.31A.69.69,0,0,0,10,14a.77.77,0,0,0,.32.12c0,.13,0,.27-.06.4a.59.59,0,0,0-.05-.14.5.5,0,0,0-.25-.22.51.51,0,0,0-.15,0,0,0,0,0,0,0,0v0a.65.65,0,0,0,.07.28.56.56,0,0,0,.37.29c0,.15-.07.3-.12.45h0a.83.83,0,0,0-.09-.35.67.67,0,0,0-.31-.29.69.69,0,0,0-.19-.06,0,0,0,0,0,0,0s0,0,0,.06a.85.85,0,0,0,.09.39.76.76,0,0,0,.48.38,5.41,5.41,0,0,1-.27.59h0a.62.62,0,0,0-.09-.32.68.68,0,0,0-.43-.29h0v.07a.71.71,0,0,0,.08.34.66.66,0,0,0,.27.26l.14.06a5.83,5.83,0,0,1-.38.59l0,0h0q-.17.23-.36.44a.85.85,0,0,0,0-.25.79.79,0,0,0-.33-.62h0a.93.93,0,0,0-.13.46.84.84,0,0,0,.26.61l-.38.36a.56.56,0,0,0,.06-.24.52.52,0,0,0-.08-.27.48.48,0,0,0-.08-.1h0a.51.51,0,0,0-.07.11.57.57,0,0,0,.07.64c-.17.14-.34.27-.5.39a.87.87,0,0,0,.19-.52.84.84,0,0,0-.1-.38.8.8,0,0,0-.1-.15,0,0,0,0,0,0,0,.88.88,0,0,0-.14.18.91.91,0,0,0-.14.47,1,1,0,0,0,.15.5h0a0,0,0,0,0,0,0l-.31.2a9.85,9.85,0,0,1-.89.49,9.85,9.85,0,0,1-1-.55l-.21-.14h0a1,1,0,0,0,.15-.5.9.9,0,0,0-.14-.47A.88.88,0,0,0,5,17.13a0,0,0,0,0,0,0,.77.77,0,0,0-.1.15.83.83,0,0,0-.1.38.87.87,0,0,0,.19.52c-.17-.12-.34-.25-.5-.39a.57.57,0,0,0,.07-.64A.51.51,0,0,0,4.48,17h0a.47.47,0,0,0-.08.1.52.52,0,0,0-.08.27.55.55,0,0,0,.06.24L4,17.31a.84.84,0,0,0,.26-.61.93.93,0,0,0-.13-.46h0a.78.78,0,0,0-.33.62.86.86,0,0,0,0,.25c-.12-.14-.25-.28-.36-.44a.86.86,0,0,0,.26-.31A.79.79,0,0,0,3.75,16a.89.89,0,0,0-.06-.32,0,0,0,0,0,0,0,.75.75,0,0,0-.2.15.71.71,0,0,0-.2.51.89.89,0,0,0,0,.12,5.52,5.52,0,0,1-.59-1.12A.76.76,0,0,0,3.13,15a.85.85,0,0,0,.09-.39s0-.05,0-.06h0a.72.72,0,0,0-.3.12.65.65,0,0,0-.21.23.83.83,0,0,0-.09.35h0c0-.15-.09-.3-.12-.45a.56.56,0,0,0,.37-.29.65.65,0,0,0,.07-.28v0h0a.53.53,0,0,0-.24.09.5.5,0,0,0-.16.18.59.59,0,0,0-.05.14c0-.13,0-.26-.06-.39A.78.78,0,0,0,2.73,14,.72.72,0,0,0,3,13.64a.76.76,0,0,0,.05-.2H3a.69.69,0,0,0-.35.1.68.68,0,0,0-.29.4c0-.12,0-.23,0-.35s0-.33,0-.49h.09A.68.68,0,0,0,2.77,13,.7.7,0,0,0,3,12.75a.72.72,0,0,0,.07-.15,0,0,0,0,0,0,0,.6.6,0,0,0-.16,0,.61.61,0,0,0-.32.09.67.67,0,0,0-.22.23,4.77,4.77,0,0,1,.2-.84l.16,0a.62.62,0,0,0,.46-.2.71.71,0,0,0,.13-.2,0,0,0,0,0,0,0,.61.61,0,0,0-.21,0,.57.57,0,0,0-.29.08.6.6,0,0,0-.15.13q.07-.17.16-.34h0a0,0,0,0,0,0,0,.62.62,0,0,0,.36-.3.71.71,0,0,0,.08-.31v0h0a.58.58,0,0,0-.25.1.53.53,0,0,0-.17.19.72.72,0,0,0-.08.35v0h0a4.57,4.57,0,0,0-.34.88A.68.68,0,0,0,2.36,12a.52.52,0,0,0-.27-.21.56.56,0,0,0-.19,0h0a0,0,0,0,0,0,0,.66.66,0,0,0,.08.26.57.57,0,0,0,.17.19.64.64,0,0,0,.31.12c0,.15-.07.3-.09.45a.62.62,0,0,0-.58-.39H1.66a.76.76,0,0,0,.12.29A.66.66,0,0,0,2,13a.73.73,0,0,0,.31.09c0,.16,0,.33,0,.5s0,.22,0,.33A.72.72,0,0,0,2,13.6a.65.65,0,0,0-.34-.1.59.59,0,0,0-.15,0,0,0,0,0,0,0,0,.8.8,0,0,0,.14.26.7.7,0,0,0,.22.18.72.72,0,0,0,.35.08H2.3a5.3,5.3,0,0,0,.19,1,.73.73,0,0,0-.17-.15A.66.66,0,0,0,2,14.79a.68.68,0,0,0-.22,0h0a.83.83,0,0,0,.15.24.72.72,0,0,0,.55.24h.16q.09.24.2.46a.64.64,0,0,0-.16-.12.5.5,0,0,0-.24-.06.56.56,0,0,0-.28.08,0,0,0,0,0,0,0,.61.61,0,0,0,.12.14A.57.57,0,0,0,2.6,16,.67.67,0,0,0,2.87,16h0a5.79,5.79,0,0,0,.38.61.54.54,0,0,0-.3-.1.51.51,0,0,0-.25.07l-.1.07h0a.58.58,0,0,0,.11.08.57.57,0,0,0,.29.08.58.58,0,0,0,.33-.11h0c.12.16.24.3.37.45a.79.79,0,0,0-.34-.08.78.78,0,0,0-.56.26,0,0,0,0,0,0,0,.9.9,0,0,0,.54.19.84.84,0,0,0,.54-.21h0l.2.2-.17,0a.49.49,0,0,0-.34.14.54.54,0,0,0-.11.14,0,0,0,0,0,0,0,.6.6,0,0,0,.25.05A.53.53,0,0,0,4,17.84a.62.62,0,0,0,.23-.2c.2.18.41.35.62.51l-.19,0a.8.8,0,0,0-.53.2.84.84,0,0,0-.17.2H4a1,1,0,0,0,.46.11.9.9,0,0,0,.7-.34l.32.21c.3.19.59.34.85.47l-.47.21-.45.17-.12,0h0a0,0,0,0,0,0,0,0,0,0,0,0,0,0,8.29,8.29,0,0,0,1.13-.46,8.33,8.33,0,0,0,1.13.46,0,0,0,0,0,0,0,0,0,0,0,0,0,0h0A8.42,8.42,0,0,1,6.43,19c.26-.13.55-.28.85-.47l.32-.21a.9.9,0,0,0,.7.34,1,1,0,0,0,.46-.11h0a0,0,0,0,0,0,0h0a.84.84,0,0,0-.17-.2.8.8,0,0,0-.53-.2l-.19,0c.21-.15.42-.32.62-.51a.62.62,0,0,0,.23.2A.53.53,0,0,0,9,17.9a.6.6,0,0,0,.25-.05,0,0,0,0,0,0,0,.54.54,0,0,0-.11-.14.49.49,0,0,0-.34-.14l-.17,0,.2-.2h0a.84.84,0,0,0,.54.21.9.9,0,0,0,.53-.19,0,0,0,0,0,0,0,.7.7,0,0,0-.15-.13.74.74,0,0,0-.41-.13.79.79,0,0,0-.34.08q.19-.21.36-.44a.55.55,0,0,0,.61,0,.55.55,0,0,0,.11-.08h0a.47.47,0,0,0-.1-.07.49.49,0,0,0-.48,0,5.71,5.71,0,0,0,.41-.69.66.66,0,0,0,.25.05.57.57,0,0,0,.37-.14.63.63,0,0,0,.12-.14,0,0,0,0,0,0,0,.57.57,0,0,0-.28-.08.51.51,0,0,0-.24.06l-.12.09.13-.3h.16a.72.72,0,0,0,.55-.24.82.82,0,0,0,.15-.24h0a.68.68,0,0,0-.22,0,.66.66,0,0,0-.35.09.72.72,0,0,0-.17.15,5.34,5.34,0,0,0,.18-.93h.09a.72.72,0,0,0,.35-.08.73.73,0,0,0,.28-.28.75.75,0,0,0,.07-.17A0,0,0,0,0,11.18,13.53ZM3.3,16.33a.65.65,0,0,1,.19-.46l.13-.11,0,0a.86.86,0,0,1,0,.27.72.72,0,0,1-.07.32.79.79,0,0,1-.24.29l0,0A.92.92,0,0,1,3.3,16.33Zm-.22-1.41a.69.69,0,0,1-.4.33A1.57,1.57,0,0,1,3,14.73l.15-.15h0A.8.8,0,0,1,3.08,14.92Zm-.34-.06A.61.61,0,0,1,3,14.6h0a1.65,1.65,0,0,0-.4.55A.73.73,0,0,1,2.74,14.86Zm-.21-.47a.43.43,0,0,1,.22-.2l.09,0h0a.58.58,0,0,1-.06.23.5.5,0,0,1-.32.25A.59.59,0,0,1,2.53,14.4Zm.16-.46a.7.7,0,0,1-.29.1,1.71,1.71,0,0,1,.17-.23A1.1,1.1,0,0,1,3,13.49a.77.77,0,0,1-.1.25A.62.62,0,0,1,2.69,13.94Zm0-.37a.61.61,0,0,1,.16-.07,1.31,1.31,0,0,0-.33.3l-.08.11A.61.61,0,0,1,2.67,13.56Zm0-.89a.55.55,0,0,1,.29-.08H3a.73.73,0,0,1-.12.2.59.59,0,0,1-.47.21H2.38A.67.67,0,0,1,2.64,12.68Zm.23-1a.51.51,0,0,1,.26-.07l.13,0h0a.68.68,0,0,1-.12.16.56.56,0,0,1-.41.18H2.63A.65.65,0,0,1,2.87,11.68Zm.32-.62a.55.55,0,0,1-.3.26A.82.82,0,0,1,3.1,11l.14-.14h0A.64.64,0,0,1,3.19,11.07Zm-.28,0a.49.49,0,0,1,.24-.22h0l-.11.11a1,1,0,0,0-.21.33A.61.61,0,0,1,2.91,11ZM2,12a.59.59,0,0,1,0-.1h0a.52.52,0,0,1,.22.07.45.45,0,0,1,.15.15.64.64,0,0,1,.08.25.57.57,0,0,1-.24-.1A.53.53,0,0,1,2,12Zm.32.93A1.09,1.09,0,0,0,2,12.58l-.11-.06a.56.56,0,0,1,.2.08A.59.59,0,0,1,2.28,12.89Zm-.51-.24a.75.75,0,0,1,0-.11,1.26,1.26,0,0,1,.21.11,1,1,0,0,1,.34.36A.65.65,0,0,1,2,12.93.62.62,0,0,1,1.77,12.65ZM1.9,14a.68.68,0,0,1-.26-.25l-.05-.11h.1a.58.58,0,0,1,.31.09.71.71,0,0,1,.28.37H2.21A.66.66,0,0,1,1.9,14Zm.39,1a.73.73,0,0,1,.26.29,1.77,1.77,0,0,1-.3-.08,1.11,1.11,0,0,1-.43-.28l.16,0A.6.6,0,0,1,2.29,14.94Zm-.36.13,0,0a1.36,1.36,0,0,0,.36.19l.26.07H2.44A.66.66,0,0,1,1.93,15.07Zm.35.76-.08-.08h0a.5.5,0,0,1,.22-.05.44.44,0,0,1,.21.05.63.63,0,0,1,.2.18.59.59,0,0,1-.21,0A.51.51,0,0,1,2.28,15.83Zm.91.76-.25,0H2.75A.44.44,0,0,1,3,16.53.47.47,0,0,1,3.19,16.59Zm-.44.08,0,0,.24,0a1.25,1.25,0,0,1,.33,0,.48.48,0,0,1-.52,0ZM4,16.51l.05-.13s0,.11,0,.18a1.58,1.58,0,0,1-.13.67.89.89,0,0,1,0-.2A1.65,1.65,0,0,1,4,16.51Zm0,.61a1.82,1.82,0,0,0,.08-.56s0-.08,0-.11a.84.84,0,0,1,0,.27A.74.74,0,0,1,4,17.11Zm-.1-.68,0-.06,0,.11a1.7,1.7,0,0,0-.1.54,1,1,0,0,0,0,.15.85.85,0,0,1-.07-.32A.69.69,0,0,1,3.94,16.43Zm-.93,1-.1-.06h0l.12-.1a.68.68,0,0,1,.37-.11.81.81,0,0,1,.45.15l0,0a.78.78,0,0,1-.49.19A.81.81,0,0,1,3,17.41Zm1.94-.11.06-.1H5a.92.92,0,0,1,.11.15.84.84,0,0,1,.12.43.89.89,0,0,1-.14.46.86.86,0,0,1-.25-.58A.77.77,0,0,1,4.95,17.31Zm-.54-.13,0-.06,0,.07a.54.54,0,0,1,.06.24.53.53,0,0,1-.11.31.54.54,0,0,1-.11-.31A.46.46,0,0,1,4.41,17.18ZM4,17.79a.47.47,0,0,1-.21,0l-.16,0h0a.49.49,0,0,1,.08-.1.43.43,0,0,1,.3-.12.61.61,0,0,1,.21,0A.55.55,0,0,1,4,17.79Zm.21.58a.74.74,0,0,1,.48-.18,1,1,0,0,1,.34.07l.06,0a1.79,1.79,0,0,1-.9.23H4A.87.87,0,0,1,4.17,18.37Zm0,.22h0A1.92,1.92,0,0,0,5,18.42a.82.82,0,0,1-.55.21A.93.93,0,0,1,4.15,18.59Zm4.63-2.15a.69.69,0,0,1,.14.42.88.88,0,0,1-.09.37h0a1.41,1.41,0,0,0,0-.15,2.31,2.31,0,0,0-.13-.72Zm-.17,0,0-.06a2.28,2.28,0,0,1,.15.75,1.3,1.3,0,0,1,0,.16.77.77,0,0,1-.22-.54A.87.87,0,0,1,8.61,16.39Zm-.39.79,0-.07.05.07a.46.46,0,0,1,.07.24.55.55,0,0,1-.11.31.52.52,0,0,1-.11-.31A.54.54,0,0,1,8.22,17.18Zm.4,1.34a2.56,2.56,0,0,1-.48,0,1.24,1.24,0,0,1-.42-.15h.11a1.68,1.68,0,0,1,.66.13l.14.07Zm-1-1.18.09-.12,0,0,.07.12a.77.77,0,0,1,.08.34.86.86,0,0,1-.25.58.89.89,0,0,1-.14-.46A.84.84,0,0,1,7.59,17.34Zm.13,1.06a1.36,1.36,0,0,0,.41.14,2.61,2.61,0,0,0,.44,0,.94.94,0,0,1-.28,0A.82.82,0,0,1,7.73,18.4Zm.33-.21a.74.74,0,0,1,.49.19l.06.06a1.69,1.69,0,0,0-.77-.17H7.73A.94.94,0,0,1,8.06,18.19Zm1-.49.07.08h0a.56.56,0,0,1-.19,0,.47.47,0,0,1-.21,0,.54.54,0,0,1-.19-.16.61.61,0,0,1,.21,0A.43.43,0,0,1,9.07,17.71Zm.63-.45.1.08h0a.84.84,0,0,1-.47.16.78.78,0,0,1-.49-.19l0,0a.81.81,0,0,1,.45-.15A.68.68,0,0,1,9.7,17.25Zm-.15-.52h0a1.7,1.7,0,0,0,.32,0,.49.49,0,0,1-.22.05Zm.39-.14,0,0a1.84,1.84,0,0,1-.41.06l-.17,0a.51.51,0,0,1,.32-.13A.45.45,0,0,1,9.94,16.59Zm-.21-3.77a2,2,0,0,1,.43.24l.1.08-.18-.08A1.22,1.22,0,0,1,9.73,12.82Zm1-.22a.59.59,0,0,1,.31-.09h0a.73.73,0,0,1-.11.24.6.6,0,0,1-.19.17.68.68,0,0,1-.29.08A.64.64,0,0,1,10.7,12.6Zm-.29-.49a.46.46,0,0,1,.23-.19l.14,0a.62.62,0,0,1-.07.21.51.51,0,0,1-.15.17.58.58,0,0,1-.24.09A.65.65,0,0,1,10.41,12.11Zm-.89-1a.65.65,0,0,1-.07-.28.54.54,0,0,1,.2.09.48.48,0,0,1,.15.17.66.66,0,0,1,.07.3A.56.56,0,0,1,9.52,11.07Zm.32.7.12.1a1.25,1.25,0,0,0-.31-.14l-.09,0h0A.5.5,0,0,1,9.85,11.76Zm-.31.1a.71.71,0,0,1-.09-.13h0l.23.05a1.09,1.09,0,0,1,.42.25H10A.56.56,0,0,1,9.54,11.87Zm.54,1a.62.62,0,0,1,.22.24,2.08,2.08,0,0,0-.54-.32h0A.55.55,0,0,1,10.08,12.84Zm-.31.1a1.46,1.46,0,0,0,.31.19l.12.05a.6.6,0,0,1-.23-.07A.62.62,0,0,1,9.77,12.94Zm.56.94a1.42,1.42,0,0,0-.3-.3l-.14-.09a.61.61,0,0,1,.2.08A.6.6,0,0,1,10.33,13.88Zm-.27.05a.66.66,0,0,1-.24-.31.87.87,0,0,1,0-.12,1.78,1.78,0,0,1,.24.15,1.2,1.2,0,0,1,.34.38h0A.71.71,0,0,1,10.06,13.93Zm-.13.47a.58.58,0,0,1-.06-.23.48.48,0,0,1,.18.08.42.42,0,0,1,.14.16.6.6,0,0,1,.06.25A.5.5,0,0,1,9.93,14.4Zm-.29.52a.8.8,0,0,1-.08-.36h0a.67.67,0,0,1,.25.11.6.6,0,0,1,.18.21.79.79,0,0,1,.08.37v0A.7.7,0,0,1,9.64,14.92Zm-.12.93a.56.56,0,0,1-.15-.18.65.65,0,0,1-.07-.3h0a.61.61,0,0,1,.35.25.56.56,0,0,1,.08.29.51.51,0,0,1,0,.06A.68.68,0,0,1,9.52,15.85Zm.63-.24a.45.45,0,0,1,.21-.05.5.5,0,0,1,.18,0l0,0-.1.1a.51.51,0,0,1-.32.12.6.6,0,0,1-.21,0A.63.63,0,0,1,10.14,15.61Zm.63-.53a.66.66,0,0,1-.45.21,1.58,1.58,0,0,0,.38-.19l.14-.1Zm-.35-.14a.6.6,0,0,1,.31-.09l.15,0h0a2.14,2.14,0,0,1-.26.2,1.24,1.24,0,0,1-.49.2h0A.75.75,0,0,1,10.43,14.94ZM11,13.8a.63.63,0,0,1-.5.23h-.06a.7.7,0,0,1,.28-.37.58.58,0,0,1,.31-.09h.11A.76.76,0,0,1,11,13.8Z" transform="translate(-1.51 -3.67)"/><path class="cls-8" d="M13,9.6" transform="translate(-1.51 -3.67)"/><path class="cls-6" d="M20.38,15.54a4.78,4.78,0,0,1-2.76.82,3.9,3.9,0,0,1-4.12-4.24,4.17,4.17,0,0,1,4.39-4.43,2.81,2.81,0,0,1,2.59,1.19L19.63,10,19.32,10l-.06-1.22a5,5,0,0,0-1.51-.21A4.79,4.79,0,0,0,16,8.81a3.89,3.89,0,0,0-1.34,3.13,3.25,3.25,0,0,0,3.45,3.62,4.75,4.75,0,0,0,.72-.05c.27-.05.48-.18.48-.48V13.33l-1.12-.42.08-.29h2.92l.09.34-.49.2c-.33.13-.4.25-.4.5Z" transform="translate(-1.51 -3.67)"/><path class="cls-6" d="M24.93,10.29a2.68,2.68,0,0,1,2.72,3,2.79,2.79,0,0,1-2.88,3.07,2.68,2.68,0,0,1-2.72-3A2.79,2.79,0,0,1,24.93,10.29Zm0,5.24a3.46,3.46,0,0,0,1.12-.2,3,3,0,0,0,.48-1.86c0-1.48-.57-2.34-1.78-2.34a3.47,3.47,0,0,0-1.12.2,3,3,0,0,0-.48,1.86C23.16,14.67,23.73,15.53,24.94,15.53Z" transform="translate(-1.51 -3.67)"/><path class="cls-6" d="M30.32,15.56l1,.42-.08.29H28.35L28.28,16l.59-.25c.33-.13.4-.25.4-.49V8.34l-.91-.14-.08-.29,1.78-.61.26.1Z" transform="translate(-1.51 -3.67)"/><path class="cls-6" d="M37.19,15.56l.9.42-.08.29-1.24.1-.18-.08-.38-.39-.05,0a4.12,4.12,0,0,1-1.81.49c-1.61,0-2.36-1.46-2.36-3a2.79,2.79,0,0,1,2.93-3.06,8.28,8.28,0,0,1,1.21.12V8.34l-.91-.14-.08-.29,1.78-.61.26.1Zm-1.06-4.25a4.26,4.26,0,0,0-1.29-.18,3.72,3.72,0,0,0-1.26.2,3,3,0,0,0-.48,1.86c0,1.65.66,2.28,1.72,2.28a6.54,6.54,0,0,0,1.31-.17Z" transform="translate(-1.51 -3.67)"/><path class="cls-6" d="M38.8,15.55l.21-.27A3.35,3.35,0,0,0,41,16c.88,0,1.56-.47,1.56-1.14v0c0-.77-.82-1-1.66-1.24-1-.29-1.9-.57-1.9-1.49v0c0-.81.75-1.43,1.87-1.43a3.54,3.54,0,0,1,1.92.61l-.2.29A3.1,3.1,0,0,0,40.9,11c-.9,0-1.5.47-1.5,1.07v0c0,.68.77.93,1.66,1.18s1.9.59,1.9,1.54v0c0,.9-.85,1.5-1.94,1.5A3.6,3.6,0,0,1,38.8,15.55Z" transform="translate(-1.51 -3.67)"/><path class="cls-6" d="M44.2,14.72v0c0-1.14,1-1.76,2.42-1.76a6.31,6.31,0,0,1,2,.3v-.37a1.71,1.71,0,0,0-2-1.85,3.86,3.86,0,0,0-1.78.46l-.13-.3a4.28,4.28,0,0,1,1.93-.48,2.36,2.36,0,0,1,1.74.6,2.16,2.16,0,0,1,.54,1.55v3.41h-.35V15.12a2.45,2.45,0,0,1-2.3,1.27C45.22,16.39,44.2,15.82,44.2,14.72Zm4.38-.48v-.67a6.19,6.19,0,0,0-2-.3c-1.2,0-2,.51-2,1.41v0c0,.9.81,1.37,1.73,1.37A2.08,2.08,0,0,0,48.59,14.24Z" transform="translate(-1.51 -3.67)"/><path class="cls-6" d="M50.73,17.18l.21-.28a3.69,3.69,0,0,0,2.29.79,2.12,2.12,0,0,0,2.31-2.31v-1a2.67,2.67,0,0,1-5.06-1.12v0a2.63,2.63,0,0,1,2.67-2.59,2.66,2.66,0,0,1,2.39,1.44V10.79h.36v4.63a2.59,2.59,0,0,1-.7,1.89,2.73,2.73,0,0,1-2,.72A4,4,0,0,1,50.73,17.18Zm4.84-3.91v0A2.34,2.34,0,0,0,53.18,11a2.25,2.25,0,0,0-2.32,2.25v0a2.28,2.28,0,0,0,2.32,2.26A2.33,2.33,0,0,0,55.57,13.27Z" transform="translate(-1.51 -3.67)"/><path class="cls-6" d="M57.54,13.52v0a2.67,2.67,0,0,1,2.61-2.84,2.61,2.61,0,0,1,2.51,2.88v.12H57.92a2.36,2.36,0,0,0,2.34,2.41,2.48,2.48,0,0,0,2-1l.26.21a2.74,2.74,0,0,1-2.24,1.13A2.71,2.71,0,0,1,57.54,13.52Zm4.74-.18A2.24,2.24,0,0,0,60.13,11a2.29,2.29,0,0,0-2.21,2.36Z" transform="translate(-1.51 -3.67)"/></svg>