<?xml version="1.0" encoding="utf-8"?>
<!-- Generator: Adobe Illustrator 21.0.2, SVG Export Plug-In . SVG Version: 6.00 Build 0)  -->
<svg version="1.1" id="Layer_1" xmlns="http://www.w3.org/2000/svg" xmlns:xlink="http://www.w3.org/1999/xlink" x="0px" y="0px"
	 viewBox="0 0 130.2 22.4" style="enable-background:new 0 0 130.2 22.4;" xml:space="preserve">
<style type="text/css">
	.st0{fill:#FFFFFF;}
	.st1{font-family:'Gotham-Light';}
	.st2{font-size:11px;}
	.st3{fill:none;stroke:#FFFFFF;stroke-width:0.25;stroke-miterlimit:10;}
	.st4{fill:#A7A9AC;}
	.st5{fill:#CDB380;}
	.st6{fill:#374E5F;}
</style>
<title>logoforgroupapp</title>
<text transform="matrix(1 0 0 1 70.41 12.95)" class="st0 st1 st2">admin</text>
<line class="st3" x1="66.1" y1="3.3" x2="66.1" y2="16.8"/>
<path class="st4" d="M6.2,8L6.2,8c0-0.2,0-0.4-0.1-0.5s0-0.1-0.2-0.1c-0.1,0.1-0.1-0.1-0.2,0C5.7,7.5,5.3,7.7,5.2,7.9
	c-0.1,0.2-0.1,0-0.2,0s0.1,0.1,0,0.2C5,8.1,4.9,8.2,4.9,8.3c0,0.1,0,0.1-0.1,0S4.6,8.2,4.6,8.3c0,0.1-0.1,0.2-0.2,0.2
	c-0.2,0.1-0.1,0.2,0,0.3C4.5,8.9,4.6,9,4.6,9.2c0,0,0,0.1,0,0.1c0,0,0,0.1,0.1,0c0.1-0.1,0,0,0-0.1S4.6,9.1,4.7,9
	c0.1,0.3,0,0.6,0.1,0.9c-0.1,0-0.1-0.2-0.1,0c0,0,0,0.1-0.1,0.1c0,0-0.1,0-0.1,0.1c0,0.1,0.1,0.1,0.1,0.1c0,0,0,0,0,0
	c0.1,0,0.2,0,0.2,0c0,0,0.2,0.2,0,0.3s-0.1,0.1,0.1,0.1c0.1,0,0.3,0.1,0.3,0.2c0,0.1,0.1,0.2-0.1,0.1c-0.2,0-0.1,0-0.1,0.1
	c0,0.1,0,0.1,0,0.2s-0.1,0.2,0,0.2s0.1-0.1,0.2-0.1c0.1,0,0.1-0.1,0.1-0.2c0,0,0,0,0,0c0-0.1,0-0.1,0-0.1s0.1,0,0.2,0
	c0.1,0.1,0.2,0.3,0.2,0.5l0,0l0,0l0,0l0,0c-0.1,0-0.1,0-0.1,0.1c0,0.1,0,0.1,0.1,0.1s0.1,0.1,0.1,0.1c0,0.1-0.1,0.1-0.1,0.1
	c-0.1,0-0.1,0-0.1-0.1c-0.1-0.1-0.2-0.2-0.3-0.1l0,0c0,0.1-0.1,0.1-0.2,0.1c-0.2-0.1-0.4-0.2-0.6-0.3c-0.1,0-0.2-0.2-0.2-0.3
	c0,0,0,0,0,0c0-0.1,0.1-0.2,0.2-0.2c0,0,0,0,0,0c0.1,0,0.1-0.1,0.1-0.1s0,0-0.1-0.1l-0.4-0.1c0,0-0.1-0.1-0.1,0c0,0.1,0,0.1,0.1,0.1
	c0.1,0,0.2,0.2,0.1,0.3c0,0,0,0,0,0c0,0.2,0.2,0.3,0.1,0.5l0,0c0.1,0,0.1,0.1,0.1,0.1s-0.2,0.1-0.2,0.1c-0.1-0.1-0.3-0.1-0.5,0
	c0.1,0.1,0,0.2,0.1,0.3l0.1-0.1c0-0.1,0.1-0.2,0.1,0c0.1,0.2,0.1,0,0.1,0h0.2c0.1,0,0.2,0,0.1,0.1s0,0.2-0.2,0.2
	c-0.2,0-0.4,0-0.6,0.1c0.1,0.1,0.2,0.2,0.3,0.1c0.1,0,0.2,0,0.2,0.1l0,0h0.2c0,0,0.1-0.1,0.1-0.1c0.1,0,0.1,0.1,0.2,0.1h0.1
	c0.1,0,0.2,0,0.2,0h0.1h0.2l0,0c0,0,0.1,0,0.1,0l0.5-0.1c0-0.1-0.1-0.1-0.1-0.2C6,12.1,6,11.8,6,11.5l0,0c-0.1-0.2,0.1-0.4,0-0.6
	l0,0l-0.1-0.2c-0.1-0.1-0.1-0.3-0.1-0.5c0,0,0.1-0.1,0-0.1c-0.1-0.1-0.1,0-0.1,0c-0.1,0-0.1,0-0.1,0.1s0-0.1-0.1-0.2
	c-0.1-0.1,0-0.1,0.1-0.1s0.2-0.1,0.1-0.2c-0.1-0.3,0-0.5,0.1-0.7c0.1-0.1,0.1-0.3,0.1-0.4C5.8,8.3,5.9,8.1,6.1,8C6.1,8,6.2,8,6.2,8z
	 M4.6,12.3c-0.1,0-0.1-0.1,0-0.1c0.1-0.1,0.2-0.2,0.3-0.4c0,0,0-0.1,0.1-0.1c0.1,0,0,0.1,0.1,0.1S5,12.1,4.9,12.2S4.7,12.3,4.6,12.3
	z M5.3,12.5c-0.1,0-0.2-0.1-0.3,0c-0.1,0.1,0-0.1,0-0.1s0-0.1,0-0.1s0.1,0.1,0.2,0c0.1-0.1,0-0.1,0.1-0.2s0,0.1,0,0.2
	S5.5,12.5,5.3,12.5L5.3,12.5z M5.8,10.4c0,0.1,0.1,0.2,0.1,0.3c0,0.1,0.1,0.2,0.1,0.4c0,0.1,0,0.1,0,0.2c0,0-0.1,0.1-0.1,0
	c0-0.1-0.2-0.2-0.3-0.4s0.1-0.1,0.1-0.1s-0.2-0.2-0.2-0.3c0-0.1-0.1-0.1,0,0S5.8,10.3,5.8,10.4L5.8,10.4z M5.7,10.2
	c0,0.1-0.1,0-0.1,0c-0.1,0-0.2,0-0.3-0.1c0.1,0,0.2,0,0.3-0.1c0.1-0.1,0.1,0,0.1,0C5.7,10.1,5.7,10.1,5.7,10.2L5.7,10.2z"/>
<path class="st4" d="M6.2,0.7c0.1-0.1,0.1,0,0.2,0c0.1,0.1,0.3,0.2,0.4,0.2c0,0,0.1,0,0.1,0C7.1,0.8,7.1,1,7.1,1.1
	c0.1,0.2,0.1,0.4,0,0.5C7.1,1.7,7,1.8,7,1.8S6.9,1.7,6.9,1.7S6.8,1.4,6.6,1.3l0,0c0-0.1,0-0.2-0.1-0.2c0,0,0,0-0.1,0l0,0
	C6.4,1,6.3,0.9,6.3,0.8H6.3l0,0L6.2,0.7z"/>
<path class="st4" d="M6.8,6.9c0.1,0.1,0.2,0,0.4,0C7.1,7,7.2,7.1,7,7.2S6.8,7.2,7,7.3s0.1,0,0,0.1s-0.1,0.1-0.1,0
	c-0.1-0.2-0.3-0.1-0.4,0s-0.1,0-0.2,0s-0.1-0.1,0-0.1s0,0,0-0.1C6.2,7,6.3,7,6.5,6.9s0.1,0,0.1-0.1L6.8,6.9z"/>
<path class="st4" d="M3.8,6.3L3.8,6.3C3.7,6.1,3.6,6.1,3.5,6s0.1,0,0.2-0.1S3.6,5.7,3.6,5.5C3.7,5.8,3.9,6,4.1,6.1
	c0.1,0.1,0.2,0.2,0.3,0.3c0,0.1,0,0.2,0.1,0.3c0,0.1,0.1,0.1,0.2,0.1c-0.2,0-0.3,0.2-0.5,0.2c-0.2,0,0,0,0,0.1s0,0.1-0.1,0.1
	C4,7.3,4,7.3,4,7.3c0,0,0,0,0,0c0-0.1,0-0.1-0.1-0.1s0,0.1-0.1,0.1C3.7,7.3,3.6,7.3,3.4,7.3c0,0,0-0.1,0-0.1s0-0.1-0.1-0.1
	C3.1,7.1,3,6.8,2.8,6.8c-0.1,0-0.1-0.1-0.1-0.2c0,0,0,0,0,0c0-0.1,0.1,0,0.2,0S3,6.6,3,6.7s0,0,0.1,0s0.2,0,0.3-0.1h0.1
	c0,0.1,0.1,0.1,0.2,0.1c0.2,0,0.3,0.1,0.5,0.2c0,0,0.1,0,0.1,0C4.1,6.7,4,6.7,4,6.6c0-0.1,0-0.1-0.1-0.1l0,0
	C3.9,6.3,3.9,6.3,3.8,6.3L3.8,6.3C3.8,6.3,3.8,6.3,3.8,6.3z M3.7,7.1C3.7,7.1,3.7,7.1,3.7,7.1L3.7,7.1C3.7,7.1,3.7,7.1,3.7,7.1z"/>
<path class="st4" d="M1.6,4.5C1.6,4.5,1.5,4.5,1.6,4.5C1.5,4.4,1.5,4.4,1.5,4.4C1.3,4.2,1.1,4,0.9,3.7c0-0.2-0.2-0.4-0.2-0.6
	S0.7,3,0.8,3s0.1,0.1,0.2,0.1S1,3.4,1.1,3.6C1.3,4,1.5,4.3,1.9,4.5C1.9,4.6,2,4.6,2,4.8S1.9,4.7,1.8,4.7S1.7,4.6,1.6,4.5z"/>
<path class="st4" d="M4.6,7.2c0.1,0,0.1,0,0.2,0.1c0.1,0,0.1,0.1,0.1,0.2c0,0.1-0.1,0-0.2,0H4.5c-0.1,0-0.1,0-0.2-0.1
	c0-0.1,0-0.1,0-0.2c0-0.1,0.1,0,0.1,0S4.5,7.2,4.6,7.2C4.6,7.2,4.6,7.1,4.6,7.2L4.6,7.2z"/>
<path class="st4" d="M3.9,7.6c0-0.1-0.1-0.1-0.1-0.1H3.6L3.5,7.4c0.1-0.1,0.3-0.1,0.4-0.1C4,7.3,4,7.4,4,7.5C4,7.6,4,7.6,3.9,7.6
	L3.9,7.6z"/>
<path class="st4" d="M4.6,8.1C4.6,8.1,4.5,8.1,4.6,8.1C4.5,8,4.7,7.8,4.8,7.8c0,0,0.1,0,0.1,0.1c0,0,0,0,0,0C4.9,8,4.7,8.1,4.6,8.1z
	"/>
<path class="st4" d="M4.2,9.8C4.2,10,4.1,10,4,10C4,9.9,4.2,9.9,4.2,9.8z"/>
<path class="st4" d="M4.6,7.2L4.6,7.2C4.5,7.1,4.6,7.2,4.6,7.2L4.6,7.2z"/>
<path class="st4" d="M6.1,10.8L6.1,10.8C6.1,10.7,6.1,10.8,6.1,10.8L6.1,10.8L6.1,10.8z"/>
<path class="st4" d="M4.9,11.8"/>
<path class="st4" d="M4.6,12.3"/>
<path class="st4" d="M5,12.4C5,12.4,5,12.4,5,12.4c0.2,0.1,0.2,0.1,0.3,0l0,0l0,0c0,0,0,0,0,0.1s0,0-0.1,0c0.1,0,0.1,0,0.2,0h0.1
	l0,0l-0.2-0.2c0,0,0-0.1,0-0.1l0,0c0,0-0.1,0-0.1,0l0,0l0,0l0,0c-0.1,0-0.1-0.1-0.1,0.1l0,0L5,12.4z M5.2,12.3
	C5.2,12.3,5.2,12.3,5.2,12.3L5.2,12.3C5.2,12.4,5.2,12.4,5.2,12.3z"/>
<path class="st0" d="M5.8,10.1c0,0,0.1-0.1,0.1-0.1c0.1,0,0.1-0.1,0.1,0c0.1,0.1,0,0.1,0,0.1c-0.1,0.2-0.1,0.4,0.1,0.5l0.1,0.2l0,0
	c0,0.2-0.1,0.4,0,0.6l0,0c-0.1,0.3-0.1,0.6,0,0.8c0,0.1,0.1,0.1,0.1,0.2h0.2c0-0.1,0-0.1,0-0.2c0-0.1,0-0.1,0-0.2
	c0.1-0.2,0-0.5,0.1-0.7c0,0,0-0.1,0-0.1c-0.1-0.2-0.2-0.3,0-0.5c0,0,0,0,0-0.1c0-0.3-0.2-0.6-0.2-1c0-0.2-0.1-0.5-0.1-0.7
	c0-0.1,0-0.1,0-0.2C6.4,8.6,6.3,8.3,6.4,8C6.2,8,6.2,8.2,6.2,8.4c0,0.1,0,0.3-0.1,0.4C6,9,5.9,9.2,6,9.5c0,0.1,0,0.1-0.1,0.2
	C5.8,9.8,5.9,9.8,5.9,9.8S5.7,10,5.8,10.1z M6.2,10.7c0.1,0,0,0.1,0,0.2V10.7C6.1,10.8,6.1,10.7,6.2,10.7L6.2,10.7z"/>
<path class="st0" d="M6.2,12.3L6.2,12.3L6.2,12.3L6.2,12.3z"/>
<path class="st0" d="M6.3,0.8c0,0.1,0,0.2,0.1,0.3C5.9,0.9,5.4,0.7,5,0.3c0.1,0,0.3,0.1,0.4,0.2c0.1,0.1,0.3,0.1,0.4,0.2
	C6,0.7,6.1,0.8,6.3,0.8C6.2,0.8,6.2,0.8,6.3,0.8z"/>
<path class="st0" d="M1.5,4.5C1.3,4.4,1.2,4.2,1.1,4.1L1,3.9L0.9,3.8l0,0C1.1,4,1.3,4.2,1.5,4.5C1.5,4.4,1.5,4.4,1.5,4.5L1.5,4.5z"
	/>
<path class="st0" d="M1.8,4.7L1.6,4.6l0,0C1.7,4.6,1.8,4.6,1.8,4.7L1.8,4.7z"/>
<path class="st0" d="M6.4,1.2c0.1,0,0.2,0.1,0.2,0.1c0,0,0,0,0,0L6.4,1.2z"/>
<path class="st0" d="M1.6,4.6L1.6,4.6L1.6,4.6C1.5,4.5,1.6,4.5,1.6,4.6z"/>
<polygon class="st0" points="2.3,0.8 2.3,0.8 2.3,0.8 "/>
<polygon class="st0" points="3.4,5.1 3.4,5.1 3.4,5.1 "/>
<path class="st0" d="M8.5,4.2C8.4,4.4,8.4,4.5,8.3,4.7C8.3,5.1,8,5.5,7.5,5.7h0l0,0c0.1-0.3,0.1-0.5,0.2-0.8C7.6,5,7.5,5.2,7.5,5.3
	C7.4,5.6,7.3,5.8,7,5.9C6.8,6,6.5,6,6.3,6.1c-0.2,0-0.2,0-0.2-0.2C6.2,5.5,6.4,5.2,6.7,5c0.3-0.2,0.5-0.4,0.8-0.6
	C7.8,4.2,8,3.9,8.2,3.6c0.2-0.5,0.3-1,0.1-1.5c0,0,0,0,0,0.1s0,0.2,0,0.3c0,0.6-0.3,1.2-0.8,1.6C7.4,4.1,7.3,4.3,7.2,4.2
	s0-0.3,0-0.4C7.3,3.2,7.3,2.6,7.3,2c0-0.4,0-0.9-0.1-1.3c0-0.2,0-0.3-0.1-0.5c0,0,0-0.1-0.1,0s0,0.2,0,0.3c0,0.1,0,0.2-0.1,0.3
	c-0.1,0.1-0.3,0-0.4-0.1S6.2,0.5,6.1,0.4L5.9,0.3c0,0-0.1,0-0.1,0c0,0-0.1,0.1,0,0.1l0.2,0.2l0.3,0.1c0.1-0.1,0.1,0,0.2,0
	c0.1,0.1,0.3,0.2,0.4,0.2c0,0,0.1,0,0.1,0C7.1,0.8,7.1,1,7.1,1.1c0.1,0.2,0.1,0.4,0,0.5C7.1,1.7,7,1.8,7,1.8S6.9,1.7,6.9,1.7
	S6.8,1.4,6.6,1.3c0.1,0.1,0.1,0.2,0.1,0.4c0.1,0.6,0.1,1.3,0,1.9C6.7,4.1,6.4,4.5,6.1,4.8C5.8,5.2,5.7,5.6,5.6,6.1
	c0,0.3-0.1,0.5-0.2,0.7C5.2,7,5.1,7,4.9,6.8C4.6,6.5,4.4,6.3,4.2,6C3.9,5.8,3.7,5.6,3.6,5.3c0-0.1,0-0.1-0.1-0.2s0,0.2,0,0.2
	C3,5,2.5,4.7,2,4.3C1.5,3.9,1.2,3.3,1,2.6C1,2.3,1,2,1,1.7c0-0.1,0.1-0.1,0.1-0.1C1.6,1.4,2,1.2,2.3,0.8c-0.1,0-0.1,0-0.2,0.1
	C1.9,1.1,1.6,1.2,1.4,1.3c0,0-0.1,0-0.1,0s0-0.1,0.1-0.1C1.6,1,1.8,0.8,2.1,0.6c0.2-0.1,0.3-0.3,0.4-0.5L2.3,0.2
	C2.2,0.3,2.1,0.4,2,0.4C1.8,0.5,1.5,0.7,1.2,0.9C1.1,0.9,1,1,0.9,0.9S0.8,0.6,0.7,0.4s0.1-0.3,0-0.5C0.6,0.2,0.5,0.5,0.5,0.8v0.2
	c0,0.1,0,0.2,0,0.3c0,0,0,0.1,0,0.1h0c0,0,0,0.1,0,0.1c0,0.1,0,0.1,0,0.2c0,0.1,0,0.1,0,0.2s0,0.4,0,0.5v0.2v0.1v0.1l0.1,0.4v0.1
	l0.1,0.2v0.1c0.1,0.1,0.1,0.2,0.2,0.3l0,0c0-0.2-0.2-0.4-0.2-0.6S0.6,3,0.6,3s0.1,0.1,0.2,0.1S0.9,3.5,1,3.6C1.1,4,1.4,4.3,1.7,4.5
	c0.1,0.1,0.2,0.1,0.1,0.3S1.7,4.7,1.7,4.7l0,0C1.7,4.8,1.9,4.9,1.9,5C2,5.4,2.2,5.7,2.5,5.8l0.1,0.1L2.9,6c0.2,0,0.4,0.1,0.6,0.2
	c0-0.1-0.1-0.1-0.2-0.2s0.1,0,0.2-0.1S3.4,5.7,3.4,5.5C3.6,5.7,3.8,5.9,4,6.1c0.1,0.1,0.2,0.2,0.3,0.3c0,0.1,0,0.2,0.1,0.3
	c0,0.1,0.1,0.1,0.1,0.1C4.3,6.9,4.2,7.1,4,7.1c-0.2,0,0,0,0,0.1S4,7.3,4,7.3c-0.1,0-0.1,0-0.1-0.1c0,0,0,0,0,0c0-0.1,0-0.1-0.1-0.1
	s0,0.1-0.1,0.1C3.6,7.3,3.4,7.3,3.3,7.3c0,0,0-0.1,0-0.1S3.3,7,3.2,7C3,7,2.9,6.8,2.6,6.7c-0.1,0-0.1-0.1-0.1-0.2c0,0,0,0,0,0
	c0-0.1,0.1,0,0.2,0s0.1,0,0.1,0.1s0,0,0.1,0s0.2,0,0.3-0.1C3,6.5,2.9,6.4,2.7,6.4c-0.2,0-0.3,0-0.3,0.2c0,0.3,0.2,0.5,0.4,0.7L3,7.4
	l0.2,0.1l0.6,0.1c0-0.1-0.1-0.1-0.1-0.1H3.5l0-0.1c0.1-0.1,0.3-0.1,0.4-0.1C4,7.3,4,7.4,4,7.5c0,0.1,0,0.1-0.1,0.1C4,7.8,4,8,4,8.2
	c0,0.3-0.1,0.7-0.2,1c0,0.1,0,0.2,0,0.3c0,0.2-0.1,0.5-0.2,0.7v0.1c0,0.1,0,0.2,0,0.3c-0.1,0.2-0.2,0.4-0.2,0.6
	c0,0.2-0.2,0.4-0.2,0.6c0,0.1-0.1,0.2-0.2,0.3c0,0.1,0,0.2,0,0.3c0.1,0,0.2,0,0.3,0c0.3,0.1,0.5,0.1,0.8,0.2l0,0
	c0-0.1-0.1-0.1-0.2-0.1c-0.1,0-0.2-0.1-0.2-0.1c0.2-0.1,0.4-0.1,0.6,0c0.2,0,0.1-0.1,0.2-0.2C4.5,12,4.5,12,4.4,12H4.1
	c0,0-0.1,0-0.1,0c0,0-0.1-0.1-0.1,0l-0.1,0.1c0-0.1,0-0.2-0.1-0.3c0.2-0.1,0.3-0.2,0.5,0c0.2,0.2,0.2,0,0.2-0.1c0-0.1,0-0.1-0.1-0.1
	l0,0c0.1-0.2-0.1-0.3-0.1-0.5c0-0.1,0-0.2-0.1-0.3c0,0,0,0,0,0C4,10.8,4,10.7,4,10.7c0-0.1,0.1,0,0.2,0l0.4,0.1c0,0,0.1,0,0.1,0.1
	c0,0.1,0,0.1-0.1,0.1c-0.1,0-0.2,0-0.3,0.1c0,0,0,0,0,0c0,0.1,0.1,0.2,0.2,0.3c0.3,0.1,0.6,0.2,0.8,0.5c0.1,0.1,0.2,0.1,0.2-0.1l0,0
	c0.1,0,0.2,0,0.3,0.1c0,0,0.1,0.1,0.2,0.1c0.1,0,0.1,0,0.1-0.1s0-0.1-0.1-0.1s-0.1,0-0.1-0.1c0-0.1,0-0.1,0.1-0.1
	c0-0.2-0.1-0.4-0.2-0.5c-0.1,0-0.1-0.1-0.2,0c-0.1,0.1,0,0.1,0,0.1c0,0.1,0,0.2-0.1,0.2c0,0,0,0,0,0c-0.1,0-0.1,0.2-0.2,0.1
	c-0.1,0,0-0.2,0-0.2s0-0.1,0-0.2s0-0.2,0.1-0.1c0.1,0,0.1-0.1,0.1-0.1c-0.1-0.1-0.2-0.2-0.3-0.2C5,10.7,5,10.6,5,10.6s0-0.2,0-0.3
	s-0.1-0.1-0.2,0c0,0-0.1,0-0.1,0c0,0,0,0,0,0c0-0.1,0,0,0.1-0.1c0,0,0-0.1,0.1-0.1c0-0.1,0.1,0,0.1,0c-0.1-0.3,0-0.6-0.1-0.9
	c-0.1,0.1,0,0.2,0,0.2s0,0.1,0,0.1s-0.1,0-0.1,0c0,0,0-0.1,0-0.1c0-0.2-0.1-0.3-0.2-0.4c-0.1-0.1-0.2-0.2,0-0.3
	c0.1,0,0.2-0.1,0.2-0.2C4.9,8.4,4.9,8.4,5,8.5c0.1,0.1,0.1,0,0.1,0c0-0.1,0-0.1,0.1-0.2c0.1-0.1-0.1-0.1,0-0.2s0.1,0.1,0.2,0
	S5.8,7.8,6,7.6c0.2-0.1,0.1,0,0.2,0c0.1,0,0.1,0.1,0.1,0.1S6.4,8,6.4,8.1c0.1,0,0-0.1,0.2-0.1C7,8.1,7.3,7.8,7.4,7.4
	c0-0.1,0.1-0.3,0-0.4S7.2,7,7.1,7l0,0c0.1,0.1,0.2,0,0.4,0c-0.1,0.1,0,0.2-0.2,0.3S7,7.4,7.2,7.5s0.1,0,0,0.1s-0.1,0.1-0.1,0
	C7,7.4,6.8,7.5,6.7,7.6s-0.1,0-0.2,0s-0.1-0.1,0-0.1s0,0,0-0.1c-0.1-0.2,0-0.2,0.2-0.3s0.1,0,0.1-0.1c-0.2,0-0.3,0-0.4,0.1
	c-0.1,0.1-0.2,0.1-0.2,0C6.1,7.1,6.1,7,6.1,7s0.3-0.3,0.5-0.3l1.2-0.7c0.3-0.1,0.5-0.4,0.6-0.7c0-0.1,0-0.2,0.1-0.3
	C8.5,4.7,8.5,4.5,8.5,4.2z M2.9,5.6L2.9,5.6L2.9,5.6c-0.2,0-0.4-0.2-0.6-0.4C2.5,5.3,2.7,5.4,2.9,5.6L2.9,5.6z M4,10
	c0-0.1,0.2-0.1,0.2-0.2C4.2,10,4.1,10,4,10L4,10z M4.5,7.5c-0.1,0-0.1,0-0.2-0.1c0-0.1,0-0.1,0-0.2c0-0.1,0.1,0,0.1,0s0.1,0,0.2,0
	s0-0.1,0-0.1H4.5c0-0.1,0.1,0,0.1,0l0,0c0.1,0,0.1,0,0.2,0.1c0.1,0,0.1,0.1,0.1,0.2c0,0.1-0.1,0-0.2,0L4.5,7.5z M4.6,8.1
	C4.6,8.1,4.6,8.1,4.6,8.1C4.6,8,4.7,7.8,4.8,7.8c0,0,0.1,0,0.1,0.1c0,0,0,0,0,0C4.9,8,4.7,8.1,4.6,8.1L4.6,8.1z"/>
<path class="st0" d="M5.8,11.3L5.8,11.3L5.8,11.3z"/>
<path class="st0" d="M2.9,5.6L2.9,5.6L2.9,5.6z"/>
<path class="st0" d="M5.8,11.3L5.8,11.3z"/>
<path class="st0" d="M7.6,5.7L7.6,5.7L7.6,5.7L7.6,5.7z"/>
<path class="st0" d="M0.5,1.6L0.5,1.6C0.5,1.6,0.5,1.6,0.5,1.6z"/>
<path class="st0" d="M5.8,10.8c-0.1-0.1-0.2-0.2-0.2-0.3c0-0.1-0.1-0.2,0-0.1s0.2-0.1,0.2,0c0,0.1,0.1,0.2,0.1,0.3
	c0,0.1,0.1,0.2,0.1,0.4c0,0.1,0,0.1,0,0.2c0,0-0.1,0.1-0.1,0c0-0.1-0.2-0.2-0.3-0.4C5.6,10.8,5.7,10.9,5.8,10.8z"/>
<path class="st0" d="M5.3,10.1c0.1,0,0.2,0,0.3-0.1c0.1-0.1,0.1,0,0.1,0c0,0,0,0.1,0,0.1c0,0.1-0.1,0-0.1,0
	C5.5,10.2,5.4,10.2,5.3,10.1z"/>
<path class="st0" d="M4.1,6.9C4.1,6.9,4,6.9,4.1,6.9C3.9,6.8,3.7,6.7,3.6,6.7c-0.1,0-0.1,0-0.2-0.1c0.2,0,0.4,0,0.6,0.1
	C4,6.8,4.1,6.8,4.1,6.9z"/>
<path class="st0" d="M3.9,6.4c0.1,0,0.2,0,0.1,0.1C4,6.5,3.9,6.5,3.9,6.4z"/>
<path class="st0" d="M3.8,6.3C3.9,6.3,3.9,6.3,3.8,6.3L3.8,6.3z"/>
<path class="st0" d="M3.8,6.3C3.8,6.3,3.8,6.3,3.8,6.3L3.8,6.3z"/>
<path class="st0" d="M6.3,0.8C6.3,0.8,6.2,0.8,6.3,0.8L6.3,0.8z"/>
<path class="st0" d="M3.7,7.1L3.7,7.1C3.7,7.1,3.7,7.1,3.7,7.1L3.7,7.1C3.7,7.1,3.7,7.1,3.7,7.1z"/>
<path class="st0" d="M4.8,12.1"/>
<path class="st0" d="M5.9,11.6"/>
<path class="st0" d="M1.8,4.6"/>
<path class="st5" d="M9.7,9.9c0,0-0.1,0-0.1,0c-0.1,0-0.2,0-0.3,0.1C9.1,10,9,10.1,8.9,10.3c0-0.1,0-0.2,0-0.3s0-0.3,0-0.5
	c0.1,0,0.2,0,0.4-0.1C9.4,9.3,9.5,9.2,9.5,9c0-0.1,0-0.1,0.1-0.2l0,0H9.5c-0.1,0-0.2,0-0.3,0.1C9,9,8.9,9.2,8.9,9.3
	c0-0.2-0.1-0.3-0.1-0.5c0.1,0,0.2,0,0.3-0.1c0.1-0.1,0.2-0.2,0.2-0.3c0-0.1,0-0.1,0-0.2l0,0l0,0c-0.1,0-0.2,0-0.3,0.1
	C9,8.4,8.9,8.5,8.8,8.5c0,0.1-0.1,0.1-0.1,0.2C8.7,8.4,8.6,8.1,8.4,7.9l0,0l0,0c0-0.2,0-0.4-0.1-0.5C8.3,7.2,8.1,7.1,7.9,7l0,0l0,0
	c0,0.1,0,0.2,0.1,0.3c0.1,0.2,0.2,0.3,0.4,0.3C8.5,7.8,8.6,8,8.6,8.2C8.6,8.1,8.5,8,8.4,8C8.3,7.9,8.2,7.9,8.1,7.9
	c-0.1,0-0.1,0-0.2,0l0,0C8,8,8,8,8,8.1c0.1,0.1,0.3,0.2,0.5,0.2h0.2l0,0c0.1,0.3,0.2,0.7,0.2,1C8.8,9.2,8.8,9.1,8.6,9
	C8.6,9,8.4,8.9,8.3,8.9c-0.1,0-0.1,0-0.2,0l0,0l0,0l0,0c0,0.1,0.1,0.2,0.1,0.2c0.1,0.1,0.1,0.1,0.2,0.2c0.1,0.1,0.2,0.1,0.3,0.1h0.1
	c0,0.1,0,0.2,0,0.3s0,0.2,0,0.2C8.9,9.9,8.8,9.8,8.7,9.7C8.6,9.6,8.4,9.6,8.3,9.6H8.2c0,0.1,0.1,0.2,0.1,0.3c0,0.2,0.1,0.3,0.2,0.4
	c0.1,0.1,0.2,0.1,0.3,0.1c0,0.1,0,0.3-0.1,0.4c0,0,0-0.1-0.1-0.1c-0.1-0.1-0.1-0.2-0.2-0.2c0,0-0.1,0-0.1,0l0,0l0,0
	c0,0.1,0,0.2,0.1,0.3c0.1,0.1,0.2,0.3,0.4,0.3c0,0.1-0.1,0.3-0.1,0.4l0,0c0-0.1,0-0.2-0.1-0.4c-0.1-0.1-0.2-0.2-0.3-0.3
	c-0.1,0-0.1,0-0.2-0.1l0,0c0,0,0,0,0,0.1c0,0.1,0,0.3,0.1,0.4c0.1,0.2,0.3,0.3,0.5,0.4c-0.1,0.2-0.2,0.4-0.3,0.6l0,0
	c0-0.1,0-0.2-0.1-0.3c-0.1-0.1-0.3-0.3-0.4-0.3l0,0v0.1c0,0.1,0,0.2,0.1,0.3C8,12.1,8,12.2,8.2,12.3l0.1,0.1
	c-0.1,0.2-0.2,0.4-0.4,0.6l0,0l0,0c-0.1,0.2-0.2,0.3-0.4,0.4c0-0.1,0-0.2,0-0.2c0-0.2-0.1-0.5-0.3-0.6l0,0c-0.1,0.1-0.1,0.3-0.1,0.5
	c0,0.2,0.1,0.5,0.3,0.6L7,13.9C7,13.9,7,13.8,7,13.7c0-0.1,0-0.2-0.1-0.3c0,0,0-0.1-0.1-0.1l0,0c0,0-0.1,0.1-0.1,0.1
	c-0.1,0.2-0.1,0.5,0.1,0.6c-0.2,0.1-0.3,0.3-0.5,0.4c0.1-0.1,0.2-0.3,0.2-0.5c0-0.1,0-0.3-0.1-0.4c0-0.1-0.1-0.1-0.1-0.1l0,0
	c-0.1,0.1-0.1,0.1-0.1,0.2c-0.1,0.1-0.1,0.3-0.1,0.5c0,0.2,0.1,0.3,0.2,0.5l0,0l0,0l-0.3,0.2c-0.3,0.2-0.6,0.3-0.9,0.5
	c-0.3-0.2-0.7-0.3-1-0.5l-0.2-0.1l0,0C3.9,14.4,4,14.2,4,14.1c0-0.2-0.1-0.3-0.1-0.5c-0.1-0.1-0.2-0.1-0.3-0.1l0,0
	c0,0-0.1,0.1-0.1,0.1c-0.1,0.1-0.1,0.2-0.1,0.4c0,0.2,0.1,0.4,0.2,0.5c-0.2-0.1-0.3-0.2-0.5-0.4c0.2-0.2,0.2-0.4,0.1-0.6
	c0-0.1,0-0.1-0.1-0.1l0,0c0,0-0.1,0.1-0.1,0.1c-0.1,0.1-0.1,0.2-0.1,0.3c0,0.1,0,0.2,0.1,0.2l-0.4-0.3c0.2-0.2,0.3-0.4,0.3-0.6
	c0-0.2,0-0.3-0.1-0.5l0,0c-0.2,0.1-0.3,0.4-0.3,0.6c0,0.1,0,0.2,0,0.2C2.2,13.3,2,13.2,1.9,13c0.1-0.1,0.2-0.2,0.3-0.3
	c0-0.1,0.1-0.2,0-0.4c0-0.1,0-0.2-0.1-0.3l0,0C2.1,12,2,12.1,2,12.2c-0.1,0.1-0.2,0.3-0.2,0.5c0,0,0,0.1,0,0.1
	c-0.2-0.3-0.4-0.7-0.6-1.1c0.2-0.1,0.3-0.2,0.4-0.3c0.1-0.1,0.1-0.3,0.1-0.4c0,0,0-0.1,0-0.1l0,0c-0.1,0-0.2,0.1-0.3,0.1
	c-0.1,0.1-0.2,0.1-0.2,0.2c-0.1,0.1-0.1,0.2-0.1,0.4l0,0c0-0.1-0.1-0.3-0.1-0.4c0.2,0,0.3-0.1,0.4-0.3c0-0.1,0.1-0.2,0.1-0.3l0,0
	l0,0c-0.1,0-0.2,0-0.2,0.1c-0.1,0-0.1,0.1-0.2,0.2c0,0,0,0.1,0,0.1c0-0.1,0-0.3-0.1-0.4c0.1-0.1,0.2-0.1,0.3-0.2
	c0.1-0.1,0.2-0.2,0.3-0.4c0-0.1,0-0.1,0-0.2h0c-0.1,0-0.2,0-0.3,0.1C1,10,0.9,10.1,0.9,10.3c0-0.1,0-0.2,0-0.4s0-0.3,0-0.5h0.1
	c0.1,0,0.2,0,0.3-0.1c0.1-0.1,0.2-0.1,0.2-0.2c0,0,0.1-0.1,0.1-0.1l0,0c-0.1,0-0.1,0-0.2,0C1.3,8.9,1.2,9,1.1,9
	C1,9.1,0.9,9.2,0.9,9.2C0.9,9,1,8.7,1.1,8.4h0.2c0.2,0,0.3-0.1,0.5-0.2C1.7,8.2,1.8,8.1,1.8,8l0,0C1.7,8,1.7,8,1.6,8
	C1.5,8,1.4,8,1.3,8.1c-0.1,0-0.1,0.1-0.2,0.1c0-0.1,0.1-0.2,0.2-0.3l0,0l0,0c0.2,0,0.3-0.2,0.4-0.3c0-0.1,0.1-0.2,0.1-0.3l0,0l0,0
	c-0.1,0-0.2,0-0.2,0.1c-0.1,0-0.1,0.1-0.2,0.2C1.3,7.7,1.3,7.8,1.3,7.9l0,0l0,0C1.1,8.2,1,8.5,0.9,8.8c0-0.2,0-0.3-0.1-0.5
	C0.8,8.2,0.7,8.2,0.6,8.1c-0.1,0-0.1,0-0.2,0l0,0l0,0c0,0.1,0,0.2,0.1,0.3c0,0.1,0.1,0.1,0.2,0.2c0.1,0.1,0.2,0.1,0.3,0.1
	c0,0.1-0.1,0.3-0.1,0.4C0.8,8.9,0.5,8.7,0.3,8.7H0.1C0.2,8.9,0.2,9,0.3,9c0,0.1,0.1,0.2,0.2,0.3c0.1,0.1,0.2,0.1,0.3,0.1
	c0,0.2,0,0.3,0,0.5s0,0.2,0,0.3C0.7,10.1,0.6,10,0.5,9.9C0.4,9.9,0.3,9.8,0.1,9.8c0,0-0.1,0-0.1,0l0,0c0,0.1,0.1,0.2,0.1,0.3
	c0.1,0.1,0.1,0.1,0.2,0.2c0.1,0.1,0.2,0.1,0.4,0.1h0.1c0,0.3,0.1,0.7,0.2,1c0-0.1-0.1-0.1-0.2-0.1c-0.1-0.1-0.2-0.1-0.3-0.1
	c-0.1,0-0.1,0-0.2,0l0,0c0,0.1,0.1,0.2,0.1,0.2c0.1,0.2,0.3,0.2,0.6,0.2h0.2c0.1,0.2,0.1,0.3,0.2,0.5c0,0-0.1-0.1-0.2-0.1
	c-0.1,0-0.2-0.1-0.2-0.1c-0.1,0-0.2,0-0.3,0.1l0,0c0,0.1,0.1,0.1,0.1,0.1c0.1,0.1,0.2,0.2,0.3,0.2c0.1,0,0.2,0,0.3,0l0,0
	c0.1,0.2,0.2,0.4,0.4,0.6c-0.1-0.1-0.2-0.1-0.3-0.1c-0.1,0-0.2,0-0.2,0.1L1.1,13l0,0c0,0,0.1,0.1,0.1,0.1c0.1,0.1,0.2,0.1,0.3,0.1
	c0.1,0,0.2,0,0.3-0.1l0,0c0.1,0.2,0.2,0.3,0.4,0.5c-0.1-0.1-0.2-0.1-0.3-0.1c-0.2,0-0.4,0.1-0.6,0.3l0,0c0.2,0.1,0.3,0.2,0.5,0.2
	c0.2,0,0.4-0.1,0.5-0.2l0,0l0.2,0.2H2.4c-0.1,0-0.2,0.1-0.3,0.1C2,14,2,14.1,2,14.1l0,0c0.1,0,0.2,0.1,0.2,0c0.1,0,0.2,0,0.3,0
	c0.1,0,0.2-0.1,0.2-0.2c0.2,0.2,0.4,0.4,0.6,0.5H3.1c-0.2,0-0.4,0.1-0.5,0.2c-0.1,0.1-0.1,0.1-0.2,0.2h0C2.6,15,2.8,15,3,15
	c0.3,0,0.5-0.1,0.7-0.3L4,14.9c0.3,0.2,0.6,0.3,0.8,0.5l-0.5,0.2l-0.5,0.2H3.8l0,0l0,0l0,0c0.4-0.1,0.8-0.3,1.1-0.5
	c0.4,0.2,0.7,0.3,1.1,0.5l0,0l0,0l0,0c-0.4-0.1-0.8-0.2-1.1-0.4c0.3-0.1,0.6-0.3,0.8-0.5l0.3-0.2C6.3,14.9,6.5,15,6.8,15
	c0.2,0,0.3,0,0.5-0.1l0,0l0,0l0,0c0-0.1-0.1-0.1-0.2-0.2c-0.1-0.1-0.3-0.2-0.5-0.2H6.4C6.6,14.3,6.8,14.2,7,14
	c0.1,0.1,0.1,0.2,0.2,0.2c0.1,0,0.2,0.1,0.3,0.1c0.1,0,0.2,0,0.2,0l0,0c0-0.1-0.1-0.1-0.1-0.1c-0.1-0.1-0.2-0.1-0.3-0.1H7.1l0.2-0.2
	l0,0c0.1,0.1,0.3,0.2,0.5,0.2c0.2,0,0.4-0.1,0.5-0.2l0,0c0-0.1-0.1-0.1-0.1-0.1c-0.1-0.1-0.3-0.1-0.4-0.1c-0.1,0-0.2,0-0.3,0.1
	c0.1-0.1,0.2-0.3,0.4-0.4c0.2,0.1,0.4,0.1,0.6,0c0,0,0.1,0,0.1-0.1l0,0c0,0-0.1-0.1-0.1-0.1c-0.1-0.1-0.3-0.1-0.5,0
	c0.2-0.2,0.3-0.5,0.4-0.7c0.1,0,0.2,0,0.2,0.1c0.1,0,0.3-0.1,0.4-0.1c0,0,0.1-0.1,0.1-0.1l0,0C9.1,12,9,12,8.9,12
	c-0.1,0-0.2,0-0.2,0.1l-0.1,0.1l0.1-0.3h0.2c0.2,0,0.4-0.1,0.6-0.2c0.1-0.1,0.1-0.2,0.1-0.2l0,0c-0.1,0-0.1,0-0.2,0
	c-0.1,0-0.2,0-0.4,0.1c-0.1,0-0.1,0.1-0.2,0.1c0.1-0.3,0.1-0.6,0.2-0.9H9c0.1,0,0.2,0,0.4-0.1c0.1-0.1,0.2-0.2,0.3-0.3
	c0-0.1,0.1-0.1,0.1-0.2L9.7,9.9z M1.8,12.7c0-0.2,0.1-0.3,0.2-0.5l0.1-0.1l0,0c0,0.1,0,0.2,0,0.3c0,0.1,0,0.2-0.1,0.3
	C2,12.8,1.9,12.9,1.8,13l0,0C1.8,12.9,1.8,12.8,1.8,12.7z M1.6,11.2c-0.1,0.2-0.2,0.3-0.4,0.3c0.1-0.2,0.2-0.4,0.3-0.5l0.2-0.1l0,0
	C1.6,11,1.6,11.1,1.6,11.2z M1.2,11.2c0.1-0.1,0.1-0.2,0.3-0.3l0,0c-0.2,0.2-0.3,0.3-0.4,0.6C1.1,11.4,1.2,11.3,1.2,11.2z M1,10.7
	c0-0.1,0.1-0.2,0.2-0.2h0.1l0,0c0,0.1,0,0.2-0.1,0.2C1.2,10.9,1.1,11,1,11C1,10.9,1,10.8,1,10.7L1,10.7z M1.2,10.3
	c-0.1,0.1-0.2,0.1-0.3,0.1c0.1-0.1,0.1-0.2,0.2-0.2C1.2,10,1.3,9.9,1.5,9.8c0,0.1-0.1,0.2-0.1,0.2C1.3,10.2,1.3,10.2,1.2,10.3
	L1.2,10.3z M1.2,9.9c0,0,0.1-0.1,0.2-0.1C1.2,9.9,1.1,10,1,10.1l-0.1,0.1C1,10.1,1,10,1.2,9.9L1.2,9.9z M1.2,9
	c0.1-0.1,0.2-0.1,0.3-0.1h0c0,0.1-0.1,0.1-0.1,0.2C1.3,9.3,1.1,9.3,0.9,9.3h0C0.9,9.2,1,9.1,1.2,9L1.2,9z M1.4,8
	c0.1,0,0.2-0.1,0.3-0.1h0.1l0,0C1.8,8,1.7,8,1.7,8.1C1.6,8.2,1.4,8.3,1.3,8.3H1.1C1.2,8.2,1.3,8.1,1.4,8L1.4,8z M1.7,7.4
	C1.7,7.5,1.6,7.6,1.4,7.6c0-0.1,0.1-0.2,0.2-0.3l0.1-0.1l0,0C1.7,7.3,1.7,7.3,1.7,7.4L1.7,7.4z M1.5,7.4c0.1-0.1,0.1-0.2,0.2-0.2
	l0,0L1.6,7.3C1.5,7.4,1.4,7.5,1.4,7.6C1.4,7.5,1.4,7.4,1.5,7.4L1.5,7.4z M0.5,8.3c0,0,0-0.1,0-0.1l0,0c0.1,0,0.2,0,0.2,0.1
	c0.1,0,0.1,0.1,0.2,0.1c0,0.1,0.1,0.2,0.1,0.2c-0.1,0-0.2,0-0.2-0.1C0.6,8.5,0.5,8.4,0.5,8.3z M0.8,9.3C0.7,9.1,0.6,9,0.5,8.9
	L0.4,8.8c0.1,0,0.1,0,0.2,0.1C0.7,9,0.7,9.1,0.8,9.3L0.8,9.3z M0.3,9c0,0,0-0.1,0-0.1C0.4,8.9,0.4,9,0.5,9c0.1,0.1,0.3,0.2,0.3,0.4
	c-0.1,0-0.3,0-0.4-0.1C0.4,9.2,0.3,9.1,0.3,9L0.3,9z M0.4,10.3c-0.1-0.1-0.2-0.1-0.3-0.2l0-0.1h0.1c0.1,0,0.2,0,0.3,0.1
	c0.1,0.1,0.2,0.2,0.3,0.4H0.7C0.6,10.4,0.5,10.4,0.4,10.3z M0.8,11.3C0.9,11.4,1,11.5,1,11.6c-0.1,0-0.2,0-0.3-0.1
	c-0.2-0.1-0.3-0.2-0.4-0.3h0.2C0.6,11.2,0.7,11.2,0.8,11.3L0.8,11.3z M0.4,11.5L0.4,11.5c0.1,0.1,0.2,0.1,0.4,0.2L1,11.7H0.9
	C0.7,11.7,0.5,11.6,0.4,11.5L0.4,11.5z M0.8,12.2L0.8,12.2L0.8,12.2c0-0.1,0.1-0.1,0.1-0.1c0.1,0,0.1,0,0.2,0.1
	c0.1,0,0.1,0.1,0.2,0.2c-0.1,0-0.1,0-0.2,0C1,12.3,0.9,12.3,0.8,12.2L0.8,12.2z M1.7,13H1.4H1.2c0.1-0.1,0.2-0.1,0.2-0.1
	C1.6,12.9,1.6,12.9,1.7,13L1.7,13z M1.2,13.1L1.2,13.1h0.2c0.1,0,0.2,0,0.3,0C1.7,13.2,1.4,13.2,1.2,13.1L1.2,13.1z M2.5,12.8
	l0.1-0.1C2.5,12.7,2.5,12.8,2.5,12.8c0.1,0.3,0,0.5-0.1,0.7c0-0.1,0-0.1,0-0.2C2.4,13.2,2.4,13,2.5,12.8z M2.5,13.5
	c0.1-0.2,0.1-0.4,0.1-0.6c0,0,0-0.1,0-0.1c0,0.1,0,0.2,0,0.3C2.6,13.2,2.6,13.3,2.5,13.5L2.5,13.5z M2.4,12.8L2.4,12.8L2.4,12.8
	c-0.1,0.2-0.1,0.4-0.1,0.6c0,0,0,0.1,0,0.1c0-0.1-0.1-0.2-0.1-0.3C2.2,13,2.3,12.9,2.4,12.8L2.4,12.8z M1.5,13.8L1.5,13.8L1.5,13.8
	l0-0.2c0.1-0.1,0.2-0.1,0.4-0.1c0.2,0,0.3,0.1,0.5,0.1l0,0c-0.1,0.1-0.3,0.2-0.5,0.2C1.7,13.8,1.6,13.8,1.5,13.8L1.5,13.8z
	 M3.4,13.7l0.1-0.1h0c0,0,0.1,0.1,0.1,0.1c0.1,0.1,0.1,0.3,0.1,0.4c0,0.2-0.1,0.3-0.1,0.5c-0.2-0.2-0.2-0.4-0.2-0.6
	C3.3,13.9,3.4,13.8,3.4,13.7L3.4,13.7z M2.9,13.5L2.9,13.5L2.9,13.5c0,0.1,0.1,0.2,0.1,0.2c0,0.1,0,0.2-0.1,0.3
	c-0.1-0.1-0.1-0.2-0.1-0.3C2.7,13.7,2.8,13.6,2.9,13.5L2.9,13.5z M2.5,14.1c-0.1,0-0.1,0-0.2,0H2.1l0,0c0,0,0-0.1,0.1-0.1
	c0.1-0.1,0.2-0.1,0.3-0.1c0.1,0,0.1,0,0.2,0C2.7,14,2.6,14.1,2.5,14.1z M2.7,14.7c0.1-0.1,0.3-0.2,0.5-0.2c0.1,0,0.2,0,0.3,0.1h0.1
	c-0.3,0.2-0.6,0.2-0.9,0.2H2.5C2.5,14.8,2.6,14.7,2.7,14.7L2.7,14.7z M2.7,14.9L2.7,14.9c0.3,0,0.5-0.1,0.8-0.2
	C3.3,14.9,3.1,15,2.9,15C2.8,15,2.7,14.9,2.7,14.9L2.7,14.9z M7.3,12.8c0.1,0.1,0.1,0.3,0.1,0.4c0,0.1,0,0.3-0.1,0.4l0,0
	c0,0,0-0.1,0-0.1C7.4,13.2,7.3,12.9,7.3,12.8L7.3,12.8z M7.2,12.8L7.2,12.8c0.1,0.2,0.1,0.4,0.1,0.7c0,0.1,0,0.1,0,0.2
	c-0.1-0.1-0.2-0.3-0.2-0.5C7.1,13,7.1,12.8,7.2,12.8L7.2,12.8z M6.8,13.6L6.8,13.6L6.8,13.6c0.1,0.1,0.1,0.2,0.1,0.2
	c0,0.1,0,0.2-0.1,0.3c-0.1-0.1-0.1-0.2-0.1-0.3C6.7,13.7,6.7,13.6,6.8,13.6L6.8,13.6z M7.2,14.9c-0.2,0-0.3,0-0.5,0
	c-0.1,0-0.3-0.1-0.4-0.1h0.1c0.2,0,0.5,0,0.7,0.1L7.2,14.9L7.2,14.9z M6.2,13.7l0.1-0.1l0,0l0.1,0.1c0.1,0.1,0.1,0.2,0.1,0.3
	c0,0.2-0.1,0.4-0.2,0.6C6.1,14.5,6,14.3,6,14.2C6,14,6,13.8,6.2,13.7L6.2,13.7z M6.3,14.8c0.1,0.1,0.3,0.1,0.4,0.1
	c0.1,0,0.3,0,0.4,0c-0.1,0-0.2,0-0.3,0C6.6,15,6.4,14.9,6.3,14.8L6.3,14.8z M6.6,14.6c0.2,0,0.4,0.1,0.5,0.2l0.1,0.1
	c-0.2-0.1-0.5-0.2-0.8-0.2H6.2C6.3,14.6,6.4,14.5,6.6,14.6L6.6,14.6z M7.6,14.1L7.6,14.1L7.6,14.1c0,0.1-0.1,0.1-0.1,0.1
	c-0.1,0-0.1,0-0.2,0c-0.1,0-0.1-0.1-0.2-0.2c0.1,0,0.1,0,0.2,0C7.4,14,7.5,14,7.6,14.1L7.6,14.1z M8.3,13.6l0.1,0.1l0,0
	c-0.1,0.1-0.3,0.2-0.5,0.2c-0.2,0-0.4-0.1-0.5-0.2l0,0c0.1-0.1,0.3-0.1,0.4-0.1C8,13.5,8.1,13.5,8.3,13.6L8.3,13.6z M8.1,13.1
	L8.1,13.1c0.1,0,0.2,0,0.3,0C8.4,13.1,8.3,13.2,8.1,13.1L8.1,13.1z M8.5,13L8.5,13C8.4,13,8.2,13,8.1,13H7.9C8,13,8.1,12.9,8.2,12.9
	C8.3,12.9,8.4,12.9,8.5,13L8.5,13z M8.3,9.2c0.2,0.1,0.3,0.1,0.4,0.2l0.1,0.1L8.6,9.4C8.5,9.4,8.3,9.3,8.3,9.2L8.3,9.2z M9.3,9
	c0.1-0.1,0.2-0.1,0.3-0.1l0,0c0,0.1-0.1,0.2-0.1,0.2C9.4,9.2,9.4,9.3,9.3,9.3C9.2,9.3,9.1,9.4,9,9.4c0-0.2,0.1-0.3,0.2-0.4L9.3,9z
	 M9,8.5c0.1-0.1,0.1-0.2,0.2-0.2h0.1c0,0.1,0,0.1-0.1,0.2c0,0.1-0.1,0.1-0.1,0.2C9.1,8.7,9,8.8,8.9,8.8c0-0.1,0-0.2,0-0.3L9,8.5z
	 M8.1,7.5C8.1,7.4,8,7.3,8,7.2c0.1,0,0.1,0,0.2,0.1c0.1,0,0.1,0.1,0.1,0.2c0,0.1,0.1,0.2,0.1,0.3C8.3,7.7,8.1,7.6,8.1,7.5L8.1,7.5z
	 M8.4,8.2l0.1,0.1C8.5,8.2,8.3,8.2,8.2,8.2H8.1l0,0c0.1,0,0.1-0.1,0.2-0.1L8.4,8.2z M8.1,8.3c0,0-0.1-0.1-0.1-0.1l0,0l0.2,0.1
	c0.2,0.1,0.3,0.1,0.4,0.2H8.5C8.3,8.5,8.1,8.4,8.1,8.3L8.1,8.3z M8.7,9.3c0.1,0.1,0.2,0.1,0.2,0.2C8.7,9.4,8.5,9.3,8.3,9.2l0,0
	c0.1,0,0.2,0,0.2,0L8.7,9.3z M8.3,9.4c0.1,0.1,0.2,0.1,0.3,0.2l0.1,0.1c-0.1,0-0.2,0-0.2-0.1C8.4,9.5,8.3,9.4,8.3,9.3L8.3,9.4z
	 M8.9,10.3c-0.1-0.1-0.2-0.2-0.3-0.3L8.5,9.9c0.1,0,0.1,0,0.2,0.1c0.1,0.1,0.1,0.1,0.2,0.2L8.9,10.3z M8.6,10.4
	c-0.1-0.1-0.2-0.2-0.2-0.3c0,0,0-0.1,0-0.1c0.1,0,0.2,0.1,0.2,0.1c0.1,0.1,0.3,0.2,0.3,0.4l0,0c-0.2,0-0.3-0.1-0.4-0.2L8.6,10.4z
	 M8.5,10.9c0-0.1-0.1-0.2-0.1-0.2c0.1,0,0.1,0,0.2,0.1c0.1,0,0.1,0.1,0.1,0.2c0,0.1,0.1,0.2,0.1,0.2c-0.2,0-0.4-0.2-0.4-0.4
	L8.5,10.9z M8.2,11.4c-0.1-0.1-0.1-0.2-0.1-0.4l0,0c0.1,0,0.2,0.1,0.2,0.1c0.1,0.1,0.1,0.1,0.2,0.2c0.1,0.1,0.1,0.2,0.1,0.4l0,0
	c-0.2,0-0.4-0.2-0.5-0.5L8.2,11.4z M8.1,12.3c-0.1,0-0.1-0.1-0.1-0.2c0-0.1-0.1-0.2-0.1-0.3l0,0c0.1,0,0.3,0.1,0.4,0.2
	c0.1,0.1,0.1,0.2,0.1,0.3c0,0,0,0,0,0.1c-0.1,0-0.2-0.1-0.3-0.2L8.1,12.3z M8.7,12.1C8.8,12,8.9,12,8.9,12c0.1,0,0.1,0,0.2,0l0,0
	L9,12.1c-0.1,0.1-0.2,0.1-0.3,0.1c-0.1,0-0.1,0-0.2,0c0-0.1,0.1-0.2,0.1-0.3L8.7,12.1z M9.4,11.5c-0.1,0.1-0.3,0.2-0.4,0.2
	C9,11.7,9.2,11.6,9.4,11.5L9.4,11.5L9.4,11.5z M9,11.4c0.1-0.1,0.2-0.1,0.3-0.1h0.1l0,0c-0.1,0.1-0.2,0.1-0.3,0.2
	c-0.1,0.1-0.3,0.2-0.5,0.2l0,0c0-0.2,0.1-0.3,0.2-0.4L9,11.4z M9.5,10.1c-0.1,0.1-0.3,0.2-0.5,0.2H8.9c0-0.2,0.1-0.3,0.3-0.4
	c0.1-0.1,0.2-0.1,0.3-0.1h0.1C9.6,10,9.5,10.1,9.5,10.1z"/>
<path class="st6" d="M11.5,5.9"/>
<path class="st0" d="M18.9,11.9c-0.8,0.6-1.8,0.8-2.8,0.8c-2.1,0.1-4-1.5-4.1-3.7c0-0.2,0-0.4,0-0.6c-0.1-2.3,1.6-4.3,3.9-4.4
	c0.2,0,0.3,0,0.5,0c1-0.1,2,0.4,2.6,1.2l-0.9,1.1h-0.3l-0.1-1.2c-0.5-0.1-1-0.2-1.5-0.2c-0.6,0-1.2,0.1-1.8,0.2
	c-0.9,0.8-1.4,1.9-1.3,3.1c-0.2,1.8,1.1,3.4,2.9,3.6c0.2,0,0.4,0,0.6,0c0.2,0,0.5,0,0.7-0.1c0.3-0.1,0.5-0.2,0.5-0.5V9.7l-1.1-0.4
	l0.1-0.3h2.9l0.1,0.3l-0.5,0.2c-0.3,0.1-0.4,0.2-0.4,0.5L18.9,11.9z"/>
<path class="st0" d="M23.4,6.6c1.5,0,2.7,1.1,2.7,2.6c0,0.1,0,0.3,0,0.4c0.2,1.5-1,2.9-2.5,3.1c-0.1,0-0.3,0-0.4,0
	c-1.5,0-2.7-1.1-2.7-2.6c0-0.1,0-0.3,0-0.4c-0.2-1.5,1-2.9,2.5-3.1C23.2,6.6,23.3,6.6,23.4,6.6z M23.4,11.9c0.4,0,0.8-0.1,1.1-0.2
	c0.4-0.6,0.5-1.2,0.5-1.9c0-1.5-0.6-2.3-1.8-2.3c-0.4,0-0.8,0.1-1.1,0.2c-0.4,0.6-0.5,1.2-0.5,1.9C21.6,11,22.2,11.9,23.4,11.9
	L23.4,11.9z"/>
<path class="st0" d="M28.8,11.9l1,0.4l-0.1,0.3h-2.9l-0.1-0.3l0.6-0.2c0.3-0.1,0.4-0.2,0.4-0.5V4.7l-0.9-0.1l-0.1-0.3l1.8-0.6
	l0.3,0.1L28.8,11.9z"/>
<path class="st0" d="M35.7,11.9l0.9,0.4l-0.1,0.3l-1.2,0.1l-0.2-0.1l-0.4-0.4h0c-0.6,0.3-1.2,0.5-1.8,0.5c-1.6,0-2.4-1.5-2.4-3
	c-0.2-1.5,1-2.9,2.5-3.1c0.1,0,0.3,0,0.4,0c0.4,0,0.8,0.1,1.2,0.1V4.7l-0.9-0.1l-0.1-0.3l1.8-0.6l0.3,0.1L35.7,11.9z M34.6,7.6
	c-0.4-0.1-0.9-0.2-1.3-0.2c-0.4,0-0.9,0.1-1.3,0.2c-0.4,0.6-0.5,1.2-0.5,1.9c0,1.6,0.7,2.3,1.7,2.3c0.4,0,0.9-0.1,1.3-0.2L34.6,7.6z
	"/>
<path class="st0" d="M37.3,11.9l0.2-0.3c0.6,0.4,1.3,0.7,2,0.7c0.9,0,1.6-0.5,1.6-1.1l0,0c0-0.8-0.8-1-1.7-1.2
	c-1-0.3-1.9-0.6-1.9-1.5l0,0c0-0.8,0.8-1.4,1.9-1.4c0.7,0,1.4,0.2,1.9,0.6l-0.2,0.3c-0.5-0.4-1.1-0.6-1.7-0.6
	c-0.9,0-1.5,0.5-1.5,1.1l0,0c0,0.7,0.8,0.9,1.7,1.2s1.9,0.6,1.9,1.5l0,0c0,0.9-0.8,1.5-1.9,1.5C38.7,12.6,37.9,12.4,37.3,11.9z"/>
<path class="st0" d="M42.7,11.1L42.7,11.1c0-1.1,1-1.8,2.4-1.8c0.7,0,1.4,0.1,2,0.3V9.2c0.1-0.9-0.6-1.8-1.5-1.9c-0.2,0-0.3,0-0.5,0
	c-0.6,0-1.2,0.2-1.8,0.5l-0.1-0.3c0.6-0.3,1.3-0.5,1.9-0.5c0.6,0,1.3,0.2,1.7,0.6c0.4,0.4,0.6,1,0.5,1.6v3.4h-0.3v-1.2
	c-0.5,0.8-1.4,1.3-2.3,1.3C43.7,12.7,42.7,12.1,42.7,11.1z M47.1,10.6V9.9c-0.6-0.2-1.3-0.3-2-0.3c-1.2,0-2,0.5-2,1.4l0,0
	c0,0.9,0.8,1.4,1.7,1.4C45.9,12.5,46.9,11.7,47.1,10.6L47.1,10.6z"/>
<path class="st0" d="M49.2,13.5l0.2-0.3c0.7,0.5,1.5,0.8,2.3,0.8c1.2,0.1,2.2-0.7,2.3-1.9c0-0.1,0-0.3,0-0.4v-1
	c-0.7,1.3-2.3,1.9-3.6,1.2c-0.9-0.4-1.5-1.3-1.5-2.3l0,0C49,8.1,50.2,7,51.6,7c0,0,0,0,0,0c1,0,1.9,0.5,2.4,1.4V7.1h0.4v4.6
	c0,0.7-0.2,1.4-0.7,1.9c-0.5,0.5-1.3,0.8-2,0.7C50.8,14.4,49.9,14.1,49.2,13.5z M54.1,9.6L54.1,9.6c0-1.3-1.1-2.3-2.4-2.3
	c-1.2,0-2.3,0.9-2.3,2.2c0,0,0,0,0,0.1l0,0c0,1.3,1,2.3,2.3,2.3c0,0,0,0,0,0C52.9,11.9,54,10.9,54.1,9.6z"/>
<path class="st0" d="M56,9.9L56,9.9c-0.1-1.5,1-2.7,2.5-2.8c0,0,0.1,0,0.1,0c1.4,0,2.6,1.3,2.5,2.7c0,0.1,0,0.1,0,0.2V10h-4.7
	c0,1.3,1,2.4,2.3,2.4c0,0,0,0,0,0c0.8,0,1.5-0.4,2-1l0.3,0.2c-0.5,0.7-1.4,1.1-2.2,1.1c-1.5,0-2.7-1.2-2.7-2.7C56,10,56,9.9,56,9.9z
	 M60.8,9.7c0.1-1.2-0.9-2.3-2.1-2.3c0,0,0,0,0,0c-1.3,0-2.2,1.1-2.2,2.4L60.8,9.7z"/>
</svg>
